<svg xmlns="http://www.w3.org/2000/svg" width="1024" height="512" viewBox="0 0 1024 512" version="1.1">
	<path d="M -0 256.001 L -0 512.002 512.250 511.751 L 1024.500 511.500 1024.752 255.750 L 1025.004 0 512.502 0 L 0 0 -0 256.001 M 0.244 256.417 C 0.110 397.171, 0.222 512.112, 0.493 511.841 C 0.764 511.570, 0.995 454.122, 1.008 384.179 C 1.030 255.280, 1.050 254.534, 4.326 258.500 C 4.819 259.097, 4.987 258.895, 4.743 258 C 4.518 257.175, 3.696 256.500, 2.917 256.500 C 1.704 256.500, 1.427 238.027, 0.994 128.500 C 0.590 26.162, 0.440 51.807, 0.244 256.417 M 305.685 41.378 C 305.154 42.763, 306.707 45, 308.200 45 C 308.640 45, 309 44.100, 309 43 C 309 41.889, 309.667 41, 310.500 41 C 311.333 41, 312 41.889, 312 43 C 312 44.100, 312.450 45, 313 45 C 314.267 45, 314.259 44.353, 312.965 41.934 C 311.751 39.666, 306.496 39.265, 305.685 41.378 M 886.250 42.780 C 885.013 42.977, 884 43.750, 884 44.496 C 884 45.243, 883.212 46.059, 882.250 46.311 C 881.288 46.562, 883.425 46.768, 887 46.768 C 890.575 46.768, 892.600 46.569, 891.500 46.325 C 886.977 45.325, 886.437 44.966, 887.999 44.001 C 889.859 42.851, 889.104 42.324, 886.250 42.780 M 895 43.634 C 895 44.450, 895.450 44.840, 896 44.500 C 896.550 44.160, 897 44.326, 897 44.868 C 897 45.410, 896.212 46.059, 895.250 46.311 C 894.288 46.562, 896.388 46.820, 899.917 46.884 C 906.618 47.005, 908.023 46.266, 901.879 45.852 C 899.929 45.721, 898.333 45.102, 898.333 44.477 C 898.333 43.802, 899.381 43.530, 900.917 43.807 C 902.337 44.064, 903.253 44.002, 902.951 43.671 C 902.649 43.340, 900.737 42.862, 898.701 42.610 C 895.890 42.261, 895 42.507, 895 43.634 M 676.791 49.191 C 677.370 49.770, 677.606 50.864, 677.315 51.622 C 676.763 53.059, 681.982 53.685, 683.325 52.342 C 684.691 50.975, 681.827 48.899, 680.311 50.157 C 679.202 51.077, 678.955 51.054, 679.194 50.052 C 679.362 49.345, 678.654 48.625, 677.619 48.452 C 676.303 48.233, 676.054 48.454, 676.791 49.191 M 698.492 48.792 C 697.946 49.181, 697.486 50.683, 697.470 52.129 C 697.442 54.575, 697.587 54.662, 699.550 53.375 C 700.710 52.615, 701.961 52.220, 702.330 52.496 C 702.698 52.773, 702.737 52.663, 702.417 52.250 C 702.096 51.837, 701.421 51.500, 700.917 51.500 C 700.413 51.500, 700 51.163, 700 50.750 C 700 50.337, 700.225 50, 700.500 50 C 700.775 50, 702.173 50, 703.607 50 C 705.513 50, 706.059 50.403, 705.638 51.500 C 705.322 52.325, 705.499 53, 706.031 53 C 707.457 53, 707.212 50.003, 705.750 49.552 C 702.179 48.452, 699.378 48.159, 698.492 48.792 M 211 60.846 C 211 61.378, 210.151 61.591, 209.113 61.319 C 208.075 61.048, 206.927 61.310, 206.561 61.901 C 206.136 62.589, 206.519 62.738, 207.622 62.315 C 208.944 61.808, 209.197 62.044, 208.705 63.326 C 208.300 64.383, 208.562 65, 209.415 65 C 210.158 65, 211.075 63.987, 211.451 62.750 C 211.918 61.213, 212.310 60.932, 212.688 61.863 C 213.156 63.014, 213.377 63.014, 214.106 61.863 C 214.790 60.783, 214.973 60.849, 214.985 62.177 C 214.993 63.099, 214.213 64.078, 213.250 64.352 C 212.287 64.626, 213.075 64.772, 215 64.675 C 217.775 64.536, 218.500 64.086, 218.500 62.500 C 218.500 60.911, 217.730 60.436, 214.750 60.190 C 212.688 60.019, 211 60.314, 211 60.846 M 595.500 80.711 C 595.500 82.961, 595.693 83, 606.750 83 L 618 83 618 80.525 C 618 78.272, 617.708 78.106, 614.750 78.669 C 610.792 79.422, 609.934 80, 612.774 80 C 613.934 80, 615.160 80.450, 615.500 81 C 615.867 81.593, 614.708 82, 612.653 82 C 609.596 82, 609.254 81.746, 609.751 79.844 C 610.141 78.351, 609.954 77.911, 609.141 78.413 C 608.496 78.812, 608.207 79.526, 608.500 80 C 608.793 80.474, 608.575 81.144, 608.016 81.490 C 607.446 81.842, 606.965 81.104, 606.921 79.809 C 606.878 78.539, 606.614 78.065, 606.336 78.756 C 606.057 79.447, 605.389 79.741, 604.852 79.408 C 604.314 79.076, 601.990 78.718, 599.687 78.613 C 595.935 78.442, 595.500 78.660, 595.500 80.711 M 724.500 80 C 724.160 80.550, 722.798 81, 721.472 81 C 719.843 81, 719.233 81.444, 719.588 82.370 C 719.993 83.425, 719.060 83.689, 715.525 83.517 C 713.001 83.394, 710.762 83.577, 710.548 83.923 C 710.334 84.269, 712.925 84.627, 716.306 84.719 C 720.145 84.823, 722.737 84.438, 723.211 83.693 C 723.787 82.786, 723.973 82.800, 723.985 83.750 C 723.996 84.666, 726.675 85, 734 85 L 744 85 744 82.500 C 744 80.078, 743.027 79.307, 741.675 80.658 C 741.313 81.020, 741.519 81.920, 742.131 82.658 C 743.032 83.743, 742.473 84, 739.216 84 C 735.582 84, 735.243 83.789, 735.751 81.844 C 736.141 80.351, 735.954 79.911, 735.141 80.413 C 734.496 80.812, 734.207 81.526, 734.500 82 C 734.793 82.474, 734.510 83.185, 733.871 83.580 C 733.061 84.081, 732.863 83.495, 733.218 81.640 C 733.623 79.523, 733.458 79.205, 732.407 80.077 C 731.681 80.680, 730.669 80.914, 730.157 80.597 C 729.646 80.281, 728.993 80.917, 728.707 82.011 C 727.902 85.092, 724.650 84.612, 725.245 81.500 C 725.752 78.847, 725.512 78.363, 724.500 80 M 174.730 86.924 C 174.397 88.196, 173.664 88.910, 173.067 88.542 C 172.480 88.179, 172 88.286, 172 88.779 C 172 89.272, 174.025 89.752, 176.500 89.846 C 180.437 89.995, 181 89.757, 181 87.949 C 181 86.641, 181.424 86.144, 182.155 86.595 C 182.870 87.038, 183.038 86.870, 182.595 86.155 C 182.203 85.520, 181.035 85, 180 85 C 178.965 85, 177.797 85.520, 177.405 86.155 C 176.962 86.870, 177.130 87.038, 177.845 86.595 C 178.530 86.173, 179 86.517, 179 87.441 C 179 89.749, 177.058 89.331, 176.131 86.824 L 175.325 84.647 174.730 86.924 M 888.547 86.076 C 888.865 86.591, 887.218 86.717, 884.698 86.372 C 880.833 85.842, 880.228 86.019, 879.759 87.814 C 879.257 89.733, 879.727 89.879, 887.362 90.180 C 898.753 90.628, 903.466 89.925, 903.639 87.750 C 903.743 86.432, 903.017 86, 900.698 86 C 897.854 86, 897.761 86.105, 899.480 87.361 C 901.210 88.626, 901.114 88.756, 898.127 89.195 C 894.428 89.738, 893.134 88.603, 895.729 87.092 C 897.239 86.213, 897.058 86.045, 894.500 85.954 C 892.850 85.895, 890.710 85.696, 889.745 85.511 C 888.780 85.327, 888.241 85.581, 888.547 86.076 M 920.864 86.469 C 920.606 86.727, 918.984 87.046, 917.260 87.177 C 915.307 87.326, 913.959 88.048, 913.686 89.092 C 913.298 90.578, 914.434 90.778, 923.665 90.850 C 929.394 90.896, 934.514 91.199, 935.041 91.525 C 935.568 91.851, 936 91.641, 936 91.059 C 936 90.477, 934.650 89.944, 933 89.875 C 928.728 89.697, 928.265 89.598, 927.333 88.667 C 926.875 88.208, 926.950 87.924, 927.500 88.035 C 929.509 88.441, 931 87.975, 931 86.941 C 931 86.359, 930.485 86.200, 929.856 86.589 C 929.227 86.978, 927.314 87.295, 925.606 87.295 C 923.898 87.294, 923.288 87.485, 924.250 87.720 C 927.792 88.584, 925.862 90.085, 921.500 89.859 C 919.025 89.731, 917 89.208, 917 88.697 C 917 88.185, 918.125 87.982, 919.500 88.245 C 921.176 88.565, 922 88.274, 922 87.361 C 922 85.942, 921.659 85.674, 920.864 86.469 M 656 88.059 C 656 88.641, 655.550 88.840, 655 88.500 C 654.450 88.160, 654 88.809, 654 89.941 C 654 92.112, 651.441 92.824, 650.779 90.837 C 650.566 90.198, 649.660 89.567, 648.765 89.436 C 647.770 89.290, 647.336 89.713, 647.648 90.525 C 647.979 91.388, 647.169 91.996, 645.329 92.265 C 643.773 92.491, 648.344 92.637, 655.487 92.589 C 667.147 92.509, 668.491 92.319, 668.636 90.730 C 668.748 89.492, 668.655 89.417, 668.325 90.480 C 667.998 91.534, 666.523 92, 663.520 92 C 659.680 92, 659.247 91.773, 659.710 90 C 660.003 88.882, 659.741 88, 659.117 88 C 658.502 88, 658 88.900, 658 90 C 658 91.100, 657.612 92, 657.139 92 C 656.665 92, 656.492 90.875, 656.755 89.500 C 657.018 88.125, 656.956 87, 656.617 87 C 656.277 87, 656 87.477, 656 88.059 M 785.507 87.989 C 785.142 88.580, 785.621 88.712, 786.698 88.319 C 788.326 87.724, 788.307 87.893, 786.500 90.063 C 785.197 91.628, 785.079 92.019, 786.161 91.184 C 787.281 90.320, 788.033 90.244, 788.470 90.951 C 788.826 91.528, 789.568 92, 790.118 92 C 790.668 92, 790.797 91.480, 790.405 90.845 C 789.952 90.114, 790.131 89.963, 790.894 90.435 C 791.734 90.954, 791.785 91.554, 791.064 92.422 C 790.320 93.320, 790.446 93.667, 791.516 93.667 C 792.393 93.667, 793 92.736, 793 91.391 C 793 89.684, 792.519 89.207, 791.079 89.485 C 790.023 89.688, 788.912 89.212, 788.610 88.427 C 787.977 86.777, 786.394 86.553, 785.507 87.989 M 201.697 93.761 C 203.065 94.666, 202.212 96.429, 200 97.271 C 199.175 97.585, 199.948 97.878, 201.719 97.921 C 204.051 97.978, 204.793 97.623, 204.412 96.631 C 204.100 95.819, 204.723 95.044, 205.943 94.725 C 207.075 94.429, 208 94.569, 208 95.036 C 208 95.503, 208.961 95.700, 210.135 95.474 C 213.265 94.871, 213.700 94.011, 210.917 93.929 C 209.588 93.890, 206.700 93.657, 204.500 93.413 C 202.300 93.169, 201.039 93.325, 201.697 93.761 M 216.143 93.898 C 215.198 94.492, 215.122 94.957, 215.893 95.434 C 216.502 95.810, 217 95.656, 217 95.090 C 217 94.525, 217.701 94.332, 218.557 94.660 C 219.414 94.989, 219.878 95.875, 219.589 96.629 C 219.002 98.159, 222.511 98.601, 223.430 97.113 C 224.624 95.181, 218.443 92.453, 216.143 93.898 M 898.136 96.250 L 898 99 910 99 L 922 99 921.864 96.250 C 921.747 93.892, 921.666 93.821, 921.294 95.750 C 920.855 98.031, 916 99.178, 916 97 C 916 96.450, 916.975 96, 918.167 96 C 921.630 96, 919.862 95.190, 915.240 94.659 C 911.952 94.281, 911 94.502, 911 95.645 C 911 96.455, 911.450 96.840, 912 96.500 C 912.550 96.160, 913 96.359, 913 96.941 C 913 98.557, 910.291 98.202, 909.638 96.500 C 909.255 95.501, 907.680 95, 904.924 95 C 901.657 95, 900.907 95.316, 901.362 96.500 C 901.704 97.393, 901.371 98, 900.538 98 C 899.769 98, 898.944 96.987, 898.706 95.750 C 898.334 93.821, 898.253 93.892, 898.136 96.250 M 483.545 98.455 C 486.423 101.332, 486.636 103.646, 484.327 106.943 C 483.407 108.257, 483.182 109.006, 483.827 108.607 C 484.533 108.171, 485 108.503, 485 109.441 C 485 110.298, 485.420 111, 485.934 111 C 486.447 111, 487.055 112.237, 487.284 113.750 C 487.681 116.376, 487.707 116.357, 487.850 113.333 C 487.933 111.592, 487.438 109.932, 486.750 109.646 C 485.840 109.267, 485.977 108.738, 487.250 107.703 C 488.212 106.920, 489 105.937, 489 105.517 C 489 105.098, 488.325 105.315, 487.501 105.999 C 486.211 107.069, 486.082 106.839, 486.579 104.356 C 487.148 101.508, 484.112 96, 481.973 96 C 481.488 96, 482.195 97.105, 483.545 98.455 M 610.001 98.498 C 607.874 101.061, 609.541 102.826, 614.187 102.929 C 616.559 102.982, 619.400 103.082, 620.500 103.150 C 624.222 103.381, 624.727 103.024, 624.245 100.500 C 623.946 98.935, 624.224 98, 624.990 98 C 625.667 98, 625.957 98.670, 625.638 99.500 C 625.322 100.325, 625.499 101, 626.031 101 C 627.339 101, 627.266 98.283, 625.937 97.461 C 625.352 97.100, 624.078 97.524, 623.106 98.404 C 622.133 99.284, 620.939 99.666, 620.452 99.252 C 619.965 98.838, 620.177 99.298, 620.925 100.273 C 622.187 101.920, 621.926 102.034, 617.276 101.870 C 613.062 101.720, 612.340 101.417, 612.721 99.959 C 613.331 97.628, 611.527 96.660, 610.001 98.498 M 630 98.976 C 630 99.604, 629.550 99.840, 629 99.500 C 628.450 99.160, 628 99.546, 628 100.358 C 628 101.169, 627.438 102.072, 626.750 102.363 C 626.063 102.654, 627.167 102.826, 629.205 102.745 C 632.353 102.619, 632.729 102.373, 631.705 101.107 C 630.733 99.905, 630.767 99.777, 631.880 100.447 C 632.818 101.013, 633.118 100.854, 632.817 99.952 C 632.250 98.250, 630 97.471, 630 98.976 M 473 111.481 C 473 123.883, 472.984 123.966, 470.557 124.575 C 469.213 124.912, 467.526 124.855, 466.807 124.447 C 465.759 123.854, 465.747 123.973, 466.745 125.048 C 467.663 126.038, 468.712 126.136, 470.745 125.424 C 473.381 124.500, 473.512 124.136, 473.781 116.979 C 473.993 111.353, 474.489 109.157, 475.781 108.115 C 477.386 106.823, 477.377 106.774, 475.649 107.373 C 473.995 107.946, 473.836 107.533, 474.156 103.507 C 474.353 101.028, 474.174 99, 473.757 99 C 473.341 99, 473 104.616, 473 111.481 M 496.073 101.635 C 493.361 105.082, 493.427 107.030, 496.250 106.884 C 497.943 106.797, 498.067 106.655, 496.750 106.311 C 492.863 105.295, 496.700 100.258, 501.765 99.728 L 505.500 99.336 501.823 99.168 C 498.926 99.036, 497.705 99.560, 496.073 101.635 M 513.215 109.169 C 513.418 116.425, 513.865 119.411, 514.775 119.594 C 515.476 119.735, 515.589 119.621, 515.025 119.342 C 514.434 119.049, 514 114.872, 514 109.486 C 514 100.588, 514.108 100.118, 516.250 99.706 C 518.155 99.339, 518.073 99.251, 515.715 99.136 L 512.930 99 513.215 109.169 M 806.592 99.742 C 806.266 100.067, 806.007 100.821, 806.015 101.417 C 806.024 102.013, 806.513 101.825, 807.102 101 C 807.963 99.795, 808.077 99.942, 807.680 101.750 C 807.409 102.987, 807.595 104, 808.094 104 C 808.592 104, 809 103.147, 809 102.105 C 809 100.484, 809.469 100.316, 812.250 100.944 C 814.038 101.347, 815.875 101.712, 816.333 101.755 C 816.792 101.798, 817.467 102.138, 817.833 102.510 C 818.200 102.882, 816.837 103.045, 814.804 102.873 C 812.771 102.700, 810.874 102.793, 810.589 103.078 C 810.304 103.363, 811.683 103.705, 813.653 103.837 C 815.623 103.970, 817.520 104.114, 817.868 104.158 C 819.700 104.387, 821 103.882, 821 102.941 C 821 102.359, 820.438 102.211, 819.750 102.613 C 819.063 103.015, 819.400 102.289, 820.500 101 C 821.600 99.711, 821.920 98.996, 821.211 99.411 C 819.806 100.234, 812.794 100.353, 809.342 99.613 C 808.154 99.358, 806.917 99.416, 806.592 99.742 M 467.382 111.500 C 467.384 118.100, 467.546 120.670, 467.741 117.211 C 467.937 113.752, 467.936 108.352, 467.738 105.211 C 467.540 102.070, 467.380 104.900, 467.382 111.500 M 665.805 102.761 C 666.181 104.725, 665.975 105.115, 664.895 104.488 C 664.128 104.043, 663.849 104.063, 664.276 104.532 C 666.203 106.651, 668.701 105.948, 668.601 103.315 C 668.540 101.732, 667.869 100.597, 666.910 100.456 C 665.712 100.281, 665.440 100.849, 665.805 102.761 M 822.755 101.828 C 822.346 103.393, 822.976 103.687, 827.139 103.877 C 831.445 104.074, 832 103.865, 832 102.049 C 832 99.175, 823.502 98.971, 822.755 101.828 M 507.349 110 C 507.349 114.675, 507.522 116.587, 507.732 114.250 C 507.943 111.912, 507.943 108.087, 507.732 105.750 C 507.522 103.412, 507.349 105.325, 507.349 110 M 328.250 105.360 C 327.012 105.973, 326 106.844, 326 107.296 C 326 107.748, 326.450 107.840, 327 107.500 C 327.558 107.155, 327.993 107.903, 327.985 109.191 C 327.972 111.096, 327.784 111.238, 326.909 110 C 326.206 109.007, 325.966 108.947, 326.199 109.825 C 326.782 112.025, 328.478 111.652, 328.820 109.250 C 329.215 106.464, 331 106.260, 331 109 C 331 110.100, 331.450 111, 332 111 C 332.550 111, 333 110.325, 333 109.500 C 333 108.675, 333.563 107.964, 334.250 107.921 C 334.938 107.878, 334.260 107.389, 332.744 106.836 C 331.228 106.282, 330.242 105.418, 330.553 104.915 C 331.193 103.878, 331.273 103.863, 328.250 105.360 M 338.668 106.475 C 337.882 107.261, 336.852 107.589, 336.380 107.202 C 335.908 106.816, 336.306 107.438, 337.265 108.583 C 338.871 110.503, 342.520 111.651, 341.435 109.895 C 341.173 109.470, 341.631 108.746, 342.453 108.286 C 343.725 107.574, 343.661 107.269, 342.024 106.247 C 340.485 105.286, 339.811 105.332, 338.668 106.475 M 500.305 106.700 C 503.475 107.522, 501.491 109.489, 497.172 109.807 C 494.001 110.041, 493.019 110.521, 493.079 111.807 C 493.128 112.849, 493.352 113.019, 493.662 112.250 C 493.940 111.563, 495.649 111, 497.461 111 C 500.890 111, 503.643 108.850, 502.527 107.044 C 502.172 106.470, 501.121 106.052, 500.191 106.116 C 498.723 106.217, 498.738 106.294, 500.305 106.700 M 628 106.992 C 627.175 107.522, 625.750 107.721, 624.833 107.436 C 623.554 107.039, 623.290 107.394, 623.700 108.959 C 624.162 110.729, 623.765 111, 620.700 111 C 618.757 111, 616.979 110.438, 616.750 109.750 C 616.521 109.063, 614.934 108.472, 613.223 108.437 C 611.512 108.402, 610.343 108.747, 610.625 109.203 C 610.907 109.659, 611.526 109.793, 612 109.500 C 612.474 109.207, 613.144 109.425, 613.490 109.984 C 613.835 110.543, 613.304 111.032, 612.309 111.070 C 610.694 111.133, 610.715 111.233, 612.500 112 C 615.516 113.296, 615.999 113.166, 615.281 111.250 C 614.716 109.742, 614.850 109.682, 616.250 110.821 C 617.281 111.659, 619.633 111.993, 622.688 111.735 C 625.334 111.512, 628.962 111.658, 630.750 112.059 C 632.539 112.461, 634 112.387, 634 111.895 C 634 111.403, 632.650 111, 631 111 C 627.614 111, 626.894 108.743, 629.750 107.080 C 630.712 106.519, 631.050 106.054, 630.500 106.046 C 629.950 106.037, 628.825 106.463, 628 106.992 M 701.667 110.667 C 700.594 111.739, 700.899 114.820, 702.155 115.595 C 702.825 116.010, 703.039 115.872, 702.666 115.268 C 702.312 114.695, 702.640 113.714, 703.394 113.088 C 704.449 112.212, 704.906 112.313, 705.372 113.526 C 705.721 114.436, 705.559 114.845, 704.989 114.493 C 704.445 114.157, 704 114.584, 704 115.441 C 704 117.421, 704.463 117.397, 707.747 115.250 C 709.218 114.287, 710.095 114.031, 709.695 114.681 C 708.657 116.365, 710.943 117.477, 712.337 115.966 C 713.228 115.001, 713.208 114.871, 712.250 115.412 C 711.417 115.883, 711 115.393, 711 113.942 C 711 112.276, 710.542 111.886, 709.046 112.278 C 707.972 112.559, 706.285 112.175, 705.296 111.426 C 703.239 109.866, 702.601 109.732, 701.667 110.667 M 712.671 111.993 C 711.649 113.309, 711.724 113.325, 713.262 112.118 C 714.815 110.899, 714.992 110.958, 714.762 112.618 C 714.451 114.854, 714.464 114.864, 719.250 115.944 C 721.419 116.433, 723 116.412, 723 115.895 C 723 115.403, 721.698 115, 720.107 115 C 718.391 115, 716.967 114.356, 716.607 113.418 C 715.794 111.300, 715.842 110.785, 716.798 111.375 C 717.237 111.646, 718.194 111.498, 718.926 111.046 C 719.776 110.521, 719.097 110.270, 717.050 110.354 C 715.286 110.426, 713.315 111.164, 712.671 111.993 M 124.310 113.079 C 124.662 114.425, 124.439 115.003, 123.677 114.717 C 123.030 114.475, 121.600 114.600, 120.500 114.995 C 119.219 115.456, 120.531 115.763, 124.146 115.850 C 130.221 115.996, 132.752 114.008, 129.029 112.015 C 125.776 110.274, 123.699 110.742, 124.310 113.079 M 132.068 112.581 C 132.932 113.623, 133.621 113.729, 134.544 112.964 C 135.305 112.332, 136.054 112.278, 136.395 112.831 C 137.328 114.340, 140.944 114.907, 141.659 113.656 C 142.023 113.020, 141.952 112.834, 141.502 113.241 C 141.052 113.649, 140.094 113.493, 139.373 112.895 C 138.652 112.296, 136.444 111.656, 134.466 111.473 C 131.427 111.190, 131.055 111.362, 132.068 112.581 M 790 113.078 C 790 113.520, 790.533 114.211, 791.184 114.613 C 791.997 115.116, 791.763 115.582, 790.434 116.102 C 788.857 116.720, 801.121 117.618, 804.260 117.115 C 804.678 117.048, 807.941 116.904, 811.510 116.794 C 815.080 116.685, 818 116.210, 818 115.739 C 818 115.268, 817.550 115.160, 817 115.500 C 816.450 115.840, 816 115.641, 816 115.059 C 816 114.477, 817.125 114, 818.500 114 C 821.115 114, 821.901 115.470, 819.750 116.338 C 819.063 116.615, 821.286 116.878, 824.691 116.921 C 830.934 117.001, 833.031 115.948, 831.149 113.679 C 830.472 112.863, 827.819 112.546, 823.313 112.742 C 814.298 113.134, 809.855 113.028, 808.836 112.399 C 808.376 112.114, 808 112.809, 808 113.941 C 808 115.073, 807.550 116, 807 116 C 806.450 116, 806 115.118, 806 114.040 C 806 112.494, 805.385 112.125, 803.085 112.290 C 801.482 112.406, 800.185 112.725, 800.203 113 C 800.339 115.028, 799.787 116, 798.500 116 C 796.684 116, 796.509 114.365, 798.250 113.662 C 798.938 113.385, 798.375 113.065, 797 112.951 C 795.625 112.838, 793.487 112.639, 792.250 112.509 C 791.013 112.379, 790 112.635, 790 113.078 M 131.855 123.255 C 132.399 123.799, 132.606 124.864, 132.315 125.622 C 131.996 126.453, 132.447 127, 133.452 127 C 134.368 127, 134.859 126.581, 134.543 126.069 C 133.613 124.564, 136.065 123.656, 137.337 125.034 C 138.228 125.999, 138.208 126.129, 137.250 125.588 C 136.563 125.200, 136 125.359, 136 125.941 C 136 126.523, 136.675 127, 137.500 127 C 138.325 127, 139 126.356, 139 125.570 C 139 124.783, 140.012 123.944, 141.250 123.706 C 142.673 123.432, 142.029 123.175, 139.500 123.009 C 137.300 122.863, 134.458 122.637, 133.183 122.506 C 131.657 122.348, 131.204 122.604, 131.855 123.255 M 148.644 122.595 C 149.273 122.870, 149.582 124.087, 149.331 125.298 L 148.875 127.500 150.220 125.254 C 151.488 123.138, 151.699 123.101, 153.850 124.608 C 155.328 125.643, 155.913 126.789, 155.508 127.854 C 155.044 129.072, 155.175 129.209, 156.010 128.381 C 156.631 127.765, 157.233 126.640, 157.347 125.881 C 157.462 125.121, 157.907 123.939, 158.335 123.253 C 158.931 122.299, 158.538 122.225, 156.660 122.939 C 155.310 123.452, 153.990 123.656, 153.726 123.392 C 153.461 123.128, 151.953 122.728, 150.373 122.503 C 148.793 122.278, 148.015 122.319, 148.644 122.595 M 206 139.809 C 206 140.590, 206.504 140.815, 207.250 140.367 C 208.232 139.777, 208.243 139.934, 207.301 141.099 C 206.322 142.311, 206.464 142.609, 208.081 142.731 C 209.279 142.821, 209.950 142.338, 209.780 141.506 C 209.483 140.047, 209.600 140, 213.500 140 C 215.056 140, 216 140.567, 216 141.500 C 216 142.658, 217.197 142.973, 221.250 142.882 C 225.647 142.783, 226.013 142.646, 223.500 142.039 C 220.572 141.331, 220.728 141.083, 225 139.658 C 226.567 139.136, 224.030 138.929, 212.750 138.661 C 207.772 138.542, 206 138.844, 206 139.809 M 358.136 145.250 L 358 148 367.250 148.015 C 373.592 148.026, 376.028 148.335, 375 149 C 374.099 149.582, 373.975 149.975, 374.691 149.985 C 375.346 149.993, 376.160 149.550, 376.500 149 C 376.840 148.450, 378.891 148, 381.059 148 C 384.257 148, 385 147.644, 385 146.109 C 385 144.673, 384.099 144.109, 381.250 143.760 C 376.761 143.211, 375 143.732, 375 145.607 C 375 146.435, 373.962 147, 372.441 147 C 370.990 147, 370.149 146.567, 370.500 146 C 370.840 145.450, 371.841 145, 372.726 145 C 373.610 145, 374.094 144.761, 373.802 144.469 C 372.943 143.610, 369.032 143.059, 369.139 143.811 C 369.483 146.234, 368.668 147.085, 368 145 C 367.219 142.562, 367.197 142.556, 367.100 144.784 C 367.017 146.669, 366.529 147.005, 364.308 146.708 C 362.827 146.510, 361.459 145.878, 361.268 145.305 C 361.065 144.696, 362.083 144.408, 363.710 144.613 C 366.432 144.954, 366.439 144.943, 364 144.139 C 361.005 143.152, 359.669 143.695, 360.400 145.601 C 360.696 146.371, 360.533 147, 360.038 147 C 359.544 147, 358.944 145.988, 358.706 144.750 C 358.334 142.821, 358.253 142.892, 358.136 145.250 M 469.750 143.656 C 471.937 144.126, 472 144.487, 472 156.601 C 472 166.802, 472.274 169.168, 473.513 169.643 C 475.586 170.439, 478.021 168.210, 477.900 165.628 C 477.812 163.745, 477.721 163.787, 477.106 165.995 C 476.725 167.367, 475.658 168.635, 474.737 168.812 C 473.251 169.098, 473.029 167.683, 472.780 156.317 L 472.500 143.500 470 143.336 C 467.797 143.192, 467.767 143.230, 469.750 143.656 M 507.667 144.667 C 507.300 145.033, 506.993 148.296, 506.985 151.917 C 506.974 156.536, 506.680 158.053, 506 157 C 504.513 154.698, 504.889 157.172, 506.456 160 C 507.731 162.299, 507.868 161.756, 508.171 153.248 C 508.352 148.159, 508.462 143.996, 508.417 143.998 C 508.371 143.999, 508.033 144.300, 507.667 144.667 M 939.374 145.467 C 939.065 146.274, 939.043 147.511, 939.327 148.217 C 939.610 148.923, 939.878 148.488, 939.921 147.250 C 939.964 146.012, 940.450 145, 941 145 C 941.920 145, 942.408 146.417, 942.118 148.250 C 942.053 148.662, 942.402 149, 942.893 149 C 944.059 149, 945.167 146.079, 944.444 144.910 C 943.551 143.464, 939.993 143.855, 939.374 145.467 M 958.463 146.742 C 959.779 149.588, 960.605 149.591, 961.383 146.750 C 961.889 144.905, 962.170 144.765, 962.947 145.974 C 963.579 146.956, 963.496 147.701, 962.697 148.208 C 961.944 148.687, 962.335 148.975, 963.750 148.985 C 965.306 148.995, 966 148.409, 966 147.083 C 966 146.029, 966.563 144.960, 967.250 144.708 C 967.938 144.456, 966.008 144.306, 962.963 144.375 C 957.601 144.496, 957.459 144.571, 958.463 146.742 M 483.777 155.841 C 484.199 172.074, 484.663 173.919, 484.825 160 C 484.904 153.125, 484.639 146.979, 484.235 146.341 C 483.831 145.704, 483.625 149.979, 483.777 155.841 M 516.989 149.250 C 515.899 151.037, 515.006 153.014, 515.004 153.643 C 515.002 154.272, 514.351 155.035, 513.557 155.340 C 512.496 155.747, 512.012 154.916, 511.725 152.197 C 511.511 150.164, 511.322 153.225, 511.305 159 C 511.277 168.404, 511.349 168.837, 511.994 163.147 C 512.390 159.653, 513.222 156.481, 513.841 156.098 C 514.952 155.412, 520.085 146, 519.349 146 C 519.141 146, 518.079 147.463, 516.989 149.250 M 490.382 158.500 C 490.384 165.100, 490.546 167.670, 490.741 164.211 C 490.937 160.752, 490.936 155.352, 490.738 152.211 C 490.540 149.070, 490.380 151.900, 490.382 158.500 M 466.370 159 C 466.370 164.775, 466.535 167.137, 466.737 164.250 C 466.939 161.363, 466.939 156.637, 466.737 153.750 C 466.535 150.863, 466.370 153.225, 466.370 159 M 167.507 150.989 C 167.171 151.532, 167.498 151.746, 168.234 151.464 C 169.079 151.139, 169.571 151.696, 169.571 152.975 C 169.571 155.126, 168.505 155.683, 167.658 153.975 C 167.379 153.411, 167.264 153.517, 167.403 154.210 C 167.769 156.028, 172.979 156.164, 174.741 154.402 C 175.564 153.578, 176.509 153.176, 176.840 153.507 C 177.171 153.838, 176.845 154.478, 176.114 154.929 C 175.202 155.493, 175.563 155.750, 177.267 155.750 C 179.090 155.750, 179.632 155.308, 179.311 154.083 C 178.741 151.902, 174.973 151.655, 173.476 153.702 C 172.302 155.307, 170 154.764, 170 152.882 C 170 152.332, 170.563 152.220, 171.250 152.633 C 172.099 153.143, 172.060 152.842, 171.128 151.692 C 169.572 149.774, 168.399 149.546, 167.507 150.989 M 190.543 151.931 C 190.226 152.443, 190.537 153.230, 191.234 153.681 C 192.054 154.212, 191.091 154.714, 188.500 155.108 L 184.500 155.716 188.750 155.858 C 192.655 155.988, 193 155.797, 193 153.500 C 193 151.016, 191.644 150.150, 190.543 151.931 M 765.136 184.750 C 765.253 187.108, 765.334 187.179, 765.706 185.250 C 765.944 184.012, 766.578 183, 767.113 183 C 767.649 183, 767.955 183.741, 767.794 184.647 C 767.336 187.213, 772.603 187.625, 773.270 185.076 C 773.994 182.308, 772.975 181.713, 770.831 183.653 C 769.128 185.194, 769 185.194, 769 183.655 C 769 182.667, 768.194 182, 767 182 C 765.452 182, 765.031 182.621, 765.136 184.750 M 871.875 184.548 C 871.806 184.796, 871.694 185.412, 871.625 185.917 C 871.556 186.421, 871.090 187.208, 870.590 187.667 C 870.066 188.146, 869.967 187.998, 870.356 187.319 C 870.728 186.670, 870.575 185.856, 870.016 185.510 C 869.457 185.164, 869 185.786, 869 186.893 C 869 188.791, 869.651 188.906, 880.500 188.923 C 891.720 188.941, 892 188.888, 891.999 186.721 C 891.999 184.686, 891.507 184.495, 886.142 184.437 C 880.737 184.378, 880.318 184.533, 880.717 186.437 C 881.128 188.400, 881.077 188.412, 879.670 186.689 C 878.356 185.081, 872.195 183.388, 871.875 184.548 M 572.500 186.793 C 567.637 187.268, 566.271 187.931, 567.980 188.988 C 568.764 189.472, 569.758 189.649, 570.191 189.382 C 570.623 189.115, 570.684 189.707, 570.326 190.698 C 569.870 191.961, 570.417 191.721, 572.154 189.896 C 574.092 187.861, 575.326 187.394, 577.806 187.758 C 579.552 188.014, 580.733 188.624, 580.431 189.112 C 580.129 189.600, 580.584 190, 581.441 190 C 582.298 190, 583 189.372, 583 188.605 C 583 187.132, 577.952 186.261, 572.500 186.793 M 673.360 196.468 C 673.437 197.755, 673.810 198.617, 674.189 198.383 C 674.567 198.149, 675.347 198.755, 675.920 199.729 C 676.738 201.116, 677.149 201.218, 677.822 200.200 C 678.294 199.485, 679.612 198.830, 680.752 198.744 C 684.337 198.474, 680.697 194.606, 676.612 194.345 C 673.626 194.154, 673.236 194.408, 673.360 196.468 M 685.784 194.845 C 686.507 195.304, 686.804 196.499, 686.465 197.580 C 685.994 199.080, 686.153 199.018, 687.193 197.294 C 688.136 195.730, 688.943 195.347, 689.964 195.978 C 690.756 196.467, 691.724 196.671, 692.114 196.429 C 693.005 195.879, 692.705 198.081, 691.663 199.750 C 691.229 200.445, 691.337 201, 691.906 201 C 692.865 201, 694.681 198.423, 694.901 196.750 C 694.956 196.338, 695.225 196, 695.500 196 C 695.775 196, 696.948 196, 698.107 196 C 699.569 196, 700.038 196.459, 699.638 197.500 C 699.280 198.434, 699.645 199, 700.605 199 C 701.521 199, 702.013 198.306, 701.817 197.290 C 701.432 195.292, 695.373 193.730, 692.978 195.012 C 692.087 195.489, 690.759 195.460, 689.946 194.946 C 689.151 194.442, 687.600 194.031, 686.500 194.031 C 685.086 194.031, 684.876 194.269, 685.784 194.845 M 585 203.500 C 584.325 204.313, 583.374 204.731, 582.887 204.430 C 582.399 204.129, 582 204.555, 582 205.378 C 582 206.319, 580.796 207.016, 578.750 207.259 C 576.962 207.471, 578.650 207.637, 582.500 207.628 C 586.350 207.619, 588.263 207.444, 586.750 207.239 C 583.704 206.827, 583.283 205.840, 585.403 204.081 C 586.480 203.187, 586.926 203.216, 587.324 204.208 C 587.680 205.095, 587.867 205.126, 587.921 204.309 C 588.049 202.380, 586.326 201.903, 585 203.500 M 988.750 214.582 C 987.516 215.808, 922.746 216.689, 919.094 215.530 C 917.612 215.059, 916.977 215.154, 917.368 215.786 C 917.766 216.430, 916.814 216.522, 914.699 216.045 C 912.891 215.637, 910.507 215.638, 909.401 216.047 C 908.295 216.456, 903.365 216.383, 898.445 215.883 C 893.525 215.384, 883.200 215.244, 875.500 215.572 C 867.800 215.900, 860.150 216.053, 858.500 215.911 C 854.477 215.564, 840.642 215.806, 834.750 216.326 C 831.662 216.598, 829.995 216.352, 829.985 215.622 C 829.976 215.005, 829.526 215.175, 828.985 216 C 828.354 216.961, 827.731 217.133, 827.250 216.478 C 826.837 215.917, 825.256 215.415, 823.735 215.365 C 820.263 215.249, 818.883 219.025, 821.457 221.599 C 822.369 222.512, 822.868 223.902, 822.566 224.689 C 822.107 225.886, 823.832 226.080, 833.119 225.875 L 844.221 225.631 843.630 221.315 C 843.047 217.066, 843.084 217, 846 217 C 848.916 217, 848.953 217.066, 848.370 221.316 L 847.779 225.631 855.139 225.962 C 859.188 226.144, 867 226.243, 872.500 226.183 C 878 226.123, 893.075 226.101, 906 226.134 C 961.272 226.274, 997.608 225.725, 998.599 224.735 C 999.261 224.072, 995.235 215.033, 994.225 214.917 C 990.035 214.435, 988.964 214.370, 988.750 214.582 M 695.500 216.313 C 693.850 216.856, 692.219 217.730, 691.875 218.257 C 691.490 218.847, 690.997 218.804, 690.590 218.145 C 690.131 217.404, 689.110 217.388, 687.254 218.094 C 685.782 218.653, 683.436 218.847, 682.039 218.525 C 680.117 218.082, 679.864 218.186, 681 218.954 C 681.825 219.513, 682.028 219.976, 681.450 219.985 C 680.872 219.993, 679.920 219.520, 679.333 218.933 C 678.576 218.176, 678.100 218.298, 677.696 219.350 C 677.383 220.166, 677.773 221.083, 678.563 221.386 C 680.541 222.145, 680.368 224.695, 678.258 225.875 C 677.046 226.554, 680.175 226.873, 688.545 226.925 C 699.927 226.996, 700.583 226.891, 700.727 224.978 C 700.826 223.660, 700.465 223.205, 699.689 223.670 C 698.796 224.207, 698.777 224.026, 699.616 222.942 C 700.229 222.149, 700.948 220.297, 701.213 218.827 C 701.786 215.640, 699.971 214.841, 695.500 216.313 M 709.605 216.588 C 709.272 217.454, 709 219.979, 709 222.198 C 709 225.741, 708.756 226.169, 707 225.710 C 705.900 225.423, 705 225.622, 705 226.153 C 705 226.684, 704.438 226.794, 703.750 226.399 C 703.063 226.003, 702.844 226.058, 703.265 226.521 C 703.906 227.227, 731.167 227.295, 749.632 226.636 C 753.454 226.500, 754.637 226.781, 754.270 227.738 C 753.945 228.585, 754.326 228.812, 755.389 228.404 C 757.308 227.668, 757.497 229.034, 755.750 231.023 C 754.955 231.929, 755.228 231.871, 756.500 230.864 C 759.405 228.566, 763.019 227.929, 765.412 229.295 C 767.314 230.381, 767.100 230.543, 763 231.123 L 758.500 231.760 763.725 231.703 C 767.582 231.660, 768.697 231.340, 767.984 230.480 C 767.452 229.840, 767.313 229.020, 767.675 228.658 C 768.037 228.296, 767.332 228, 766.108 228 C 764.884 228, 764.128 227.601, 764.430 227.114 C 764.731 226.626, 764.195 226.023, 763.239 225.773 C 761.079 225.209, 760.972 218.264, 763.102 216.916 C 764.790 215.847, 764.807 215.852, 758.278 215.535 C 755.140 215.383, 753.293 215.665, 753.649 216.241 C 753.975 216.768, 753.175 216.631, 751.871 215.936 C 749.749 214.805, 749.637 214.839, 750.807 216.258 C 751.937 217.628, 751.837 217.770, 750.068 217.308 C 748.943 217.013, 748.199 216.486, 748.416 216.136 C 748.632 215.786, 743.677 215.488, 737.404 215.473 C 731.132 215.459, 726 215.757, 726 216.135 C 726 216.979, 723.942 216.720, 722.250 215.663 C 721.563 215.233, 721 215.301, 721 215.813 C 721 216.777, 712.749 216.581, 711.127 215.579 C 710.622 215.267, 709.937 215.721, 709.605 216.588 M 767.500 215.959 C 765.128 216.430, 764.866 216.700, 766.250 217.246 C 768.180 218.008, 768.728 223.872, 767.028 225.572 C 765.829 226.771, 785.046 226.708, 786.990 225.506 C 787.736 225.045, 788.067 225.084, 787.752 225.595 C 787.446 226.093, 788.481 226.593, 790.054 226.706 C 792.891 226.911, 792.898 226.898, 790.956 224.956 C 788.883 222.883, 788.359 219.514, 789.956 218.527 C 790.482 218.202, 790.660 217.278, 790.352 216.474 C 790.043 215.669, 789.310 215.309, 788.722 215.672 C 787.150 216.643, 782.091 216.773, 777.250 215.967 C 774.627 215.529, 773 215.638, 773 216.252 C 773 216.881, 772.543 216.901, 771.750 216.304 C 771.063 215.786, 769.150 215.631, 767.500 215.959 M 807.208 215.871 C 806.557 216.274, 803.739 216.556, 800.947 216.499 C 796.520 216.408, 795.930 216.626, 796.342 218.199 C 796.628 219.293, 796.400 219.747, 795.762 219.353 C 795.064 218.921, 794.941 219.678, 795.395 221.601 C 795.772 223.196, 796.137 225.016, 796.207 225.646 C 796.360 227.037, 805.862 226.323, 807.750 224.778 C 808.627 224.060, 809 224.122, 809 224.985 C 809 225.667, 809.668 225.958, 810.500 225.638 C 811.325 225.322, 812 225.589, 812 226.231 C 812 227.114, 812.282 227.118, 813.153 226.247 C 813.980 225.420, 814.863 225.392, 816.274 226.147 C 817.804 226.966, 818.066 226.915, 817.451 225.921 C 817.016 225.217, 816.652 222.734, 816.641 220.401 C 816.625 216.772, 816.289 216.097, 814.311 215.719 C 813.040 215.476, 812 215.681, 812 216.174 C 812 216.677, 811.209 216.647, 810.196 216.105 C 809.204 215.574, 807.859 215.469, 807.208 215.871 M 547.533 216.801 C 547.367 216.967, 545.942 217.211, 544.366 217.344 C 542.129 217.533, 541.576 218.015, 541.845 219.543 C 542.035 220.619, 542.260 221.534, 542.345 221.576 C 542.430 221.618, 544.638 223.065, 547.250 224.792 C 550.662 227.048, 552 227.519, 552 226.466 C 552 224.440, 557.870 224.497, 558.650 226.531 C 559.433 228.571, 571.626 228.417, 572.417 226.356 C 573.091 224.600, 575.478 224.621, 577.257 226.400 C 578.027 227.170, 580.197 227.849, 582.079 227.909 C 589.552 228.147, 610.055 228.045, 641.482 227.614 L 674.464 227.161 674.150 223.331 C 673.731 218.214, 673.473 218.047, 665.450 217.695 C 661.628 217.527, 657.825 217.190, 657 216.945 C 656.088 216.674, 655.620 217.056, 655.806 217.919 C 656.052 219.058, 655.822 219.097, 654.645 218.121 C 652.577 216.404, 651.644 218.289, 652.446 222.565 C 653.081 225.951, 653.040 226, 649.564 226 C 646.632 226, 645.932 225.577, 645.407 223.487 C 645.058 222.095, 645.294 220.350, 645.937 219.576 C 646.777 218.563, 646.792 217.990, 645.991 217.495 C 644.301 216.450, 639.985 216.167, 640.587 217.141 C 641.333 218.348, 636.269 218.214, 633.934 216.965 C 632.489 216.191, 631.996 216.255, 631.985 217.215 C 631.973 218.190, 631.785 218.210, 631.205 217.298 C 630.626 216.387, 620.405 216.144, 589.138 216.298 C 566.422 216.409, 547.700 216.635, 547.533 216.801 M 205.376 218.024 C 204.211 219.189, 183.634 219.500, 181.772 218.381 C 180.753 217.768, 180.747 217.921, 181.741 219.150 C 182.424 219.994, 182.682 220.985, 182.314 221.352 C 181.947 221.720, 182.441 222.602, 183.412 223.312 C 184.384 224.023, 185.026 225.480, 184.839 226.552 C 184.596 227.947, 184.997 228.417, 186.250 228.206 C 187.213 228.045, 188.007 228.495, 188.015 229.206 C 188.027 230.202, 188.232 230.183, 188.904 229.122 C 189.453 228.254, 190.280 228.058, 191.138 228.594 C 193.068 229.798, 195.115 229.995, 194.446 228.912 C 193.896 228.023, 197.636 227.544, 203.323 227.777 C 205.980 227.886, 206.129 227.674, 205.876 224.168 C 205.728 222.120, 205.966 219.864, 206.404 219.156 C 207.416 217.518, 206.685 216.715, 205.376 218.024 M 265 217.942 C 265 218.793, 264.192 219.014, 262.569 218.607 C 261.233 218.271, 258.983 218.436, 257.569 218.974 C 256.143 219.516, 255 219.556, 255 219.064 C 255 218.049, 253.090 218.188, 251.250 219.337 C 250.563 219.767, 250 219.754, 249.999 219.309 C 249.999 218.864, 241.912 218.426, 232.028 218.335 C 222.144 218.245, 214.097 218.470, 214.147 218.835 C 214.196 219.201, 214.184 221.243, 214.118 223.372 C 214.010 226.911, 213.849 227.126, 212.250 225.872 C 210.664 224.629, 210.629 224.664, 211.872 226.250 C 212.807 227.441, 214.643 228, 217.622 228 C 221.119 228, 222.003 228.352, 222.015 229.750 C 222.028 231.187, 222.193 231.243, 222.939 230.064 C 223.692 228.874, 224.117 228.853, 225.424 229.937 C 226.750 231.038, 227 230.984, 227 229.594 C 227 228.208, 227.740 228.044, 231.629 228.572 C 234.979 229.026, 236.495 228.826, 237.114 227.850 C 237.723 226.888, 237.974 226.852, 237.985 227.725 C 237.995 228.560, 238.717 228.701, 240.250 228.167 C 241.488 227.737, 243.625 227.485, 245 227.607 C 246.375 227.729, 251.285 227.931, 255.911 228.054 C 265.510 228.311, 267.111 227.306, 266.577 221.357 C 266.283 218.079, 265 215.301, 265 217.942 M 358 217.910 C 358 218.475, 357.371 218.696, 356.601 218.400 C 354.857 217.731, 353.781 219.411, 353.042 223.955 C 352.175 229.292, 349.425 229.204, 348.702 223.816 C 348.378 221.400, 348.562 219.271, 349.124 218.923 C 349.671 218.585, 344.561 218.267, 337.768 218.217 C 325.979 218.130, 325.409 218.220, 325.261 220.187 C 325.175 221.321, 325.757 222.900, 326.553 223.696 C 328.331 225.474, 328.439 227.932, 326.750 228.194 C 326.063 228.300, 330 228.648, 335.500 228.966 C 346.271 229.589, 372.066 229.443, 422 228.477 C 439.325 228.142, 455.637 227.920, 458.250 227.984 C 463.845 228.122, 464.060 227.420, 460.250 221.451 C 457.897 217.765, 457.139 217.232, 455 217.763 C 453.625 218.104, 443.275 218.334, 432 218.275 C 397.914 218.095, 371.817 218.054, 365.885 218.173 C 362.796 218.234, 359.759 217.969, 359.135 217.583 C 358.511 217.198, 358 217.344, 358 217.910 M 618.427 219.435 C 617.650 222.530, 618.419 224.840, 620.490 225.635 C 622.875 226.550, 624.779 224.278, 624.606 220.726 C 624.474 218.016, 624.019 217.450, 621.760 217.187 C 619.585 216.934, 618.947 217.364, 618.427 219.435 M 148.146 218.910 C 147.439 219.347, 144.123 219.787, 140.778 219.887 C 137.433 219.988, 134.245 220.349, 133.694 220.689 C 133.081 221.068, 133.009 220.794, 133.510 219.985 C 134.112 219.010, 133.866 218.837, 132.582 219.330 C 131.622 219.699, 130.469 220, 130.021 220 C 129.572 220, 129.279 221.572, 129.370 223.494 C 129.460 225.416, 129.076 227.181, 128.517 227.415 C 126.672 228.189, 132.005 228.244, 146.986 227.606 C 148.610 227.537, 149.604 226.821, 149.850 225.542 C 150.057 224.465, 150.940 222.440, 151.811 221.042 C 152.682 219.644, 153.010 218.834, 152.539 219.241 C 152.069 219.649, 151.178 219.562, 150.558 219.049 C 149.939 218.535, 148.854 218.472, 148.146 218.910 M 156.036 219.436 C 156.566 219.966, 157.007 221.548, 157.015 222.950 C 157.041 227.222, 158.020 227.633, 168.750 227.887 L 179 228.130 179 225.147 C 179 219.854, 178.327 219.228, 172.949 219.518 C 170.235 219.665, 168.196 219.492, 168.417 219.135 C 168.638 218.777, 165.725 218.482, 161.945 218.478 C 157.533 218.474, 155.417 218.817, 156.036 219.436 M 272.004 219.404 C 273.767 221.167, 273.210 227.791, 271.250 228.373 C 270.288 228.659, 271.597 228.764, 274.159 228.606 C 276.722 228.448, 279.504 228.703, 280.343 229.172 C 281.214 229.659, 282.111 229.629, 282.438 229.100 C 282.752 228.592, 284.405 228.396, 286.111 228.665 C 288.081 228.975, 288.982 228.780, 288.580 228.129 C 288.186 227.492, 288.808 227.312, 290.223 227.653 C 293.398 228.419, 298.886 229.034, 296.751 228.385 C 294.494 227.700, 293.375 223.231, 294.862 220.849 C 295.877 219.224, 295.682 218.986, 293.258 218.882 C 291.741 218.816, 290.050 218.858, 289.500 218.973 C 286.021 219.702, 282.091 219.661, 282.562 218.900 C 282.868 218.405, 282.443 218, 281.618 218 C 280.793 218, 279.840 218.450, 279.500 219 C 279.160 219.550, 278.432 220, 277.882 220 C 277.332 220, 277.170 219.533, 277.523 218.963 C 277.929 218.306, 276.852 218.015, 274.586 218.167 C 272.211 218.327, 271.343 218.743, 272.004 219.404 M 303 218.985 C 300.883 219.493, 300.416 220.307, 299.954 224.292 C 299.431 228.806, 299.513 229.002, 301.954 229.038 C 303.354 229.058, 309.113 229.171, 314.750 229.288 C 324.414 229.488, 327.522 228.893, 322.996 227.709 C 321.849 227.409, 321.205 226.611, 321.491 225.843 C 321.766 225.104, 321.623 223.150, 321.173 221.500 C 320.361 218.517, 320.316 218.500, 312.928 218.443 C 308.843 218.411, 304.375 218.655, 303 218.985 M 763.136 221.323 C 763.024 224.464, 763.312 225.087, 764.750 224.811 C 766.533 224.468, 767.479 219.414, 765.938 218.462 C 765.517 218.201, 765.396 219.454, 765.669 221.244 C 766.257 225.101, 764.426 223.932, 763.721 220 C 763.400 218.214, 763.233 218.592, 763.136 221.323 M 102.746 219.587 C 102.453 219.880, 89.007 220.128, 72.865 220.138 C 53.967 220.150, 43.068 220.528, 42.258 221.201 C 39.829 223.216, 40.858 225, 44.450 225 C 46.353 225, 48.259 225.626, 48.700 226.395 C 49.174 227.221, 51.622 227.934, 54.702 228.145 C 59.707 228.486, 59.855 228.424, 58.595 226.500 C 57.329 224.568, 57.508 224.502, 63.892 224.572 C 69.246 224.631, 70.561 224.963, 70.823 226.322 C 71.038 227.437, 72.129 228, 74.073 228 C 76.645 228, 77.454 227.173, 77.153 224.853 C 77.106 224.496, 77.953 224.436, 79.034 224.719 C 80.115 225.002, 81 225.942, 81 226.808 C 81 228.107, 81.236 228.060, 82.348 226.538 C 83.791 224.565, 86 225.182, 86 227.559 C 86 229.309, 85.675 229.278, 100.500 228.931 C 107.100 228.776, 114.188 228.616, 116.250 228.575 C 118.313 228.534, 120 228.132, 120 227.683 C 120 227.233, 120.787 227.115, 121.750 227.421 C 123.212 227.885, 123.500 227.336, 123.500 224.088 L 123.500 220.200 114.122 220.080 C 108.964 220.014, 104.415 219.756, 104.012 219.507 C 103.609 219.258, 103.039 219.294, 102.746 219.587 M 287.249 231.793 C 286.976 232.504, 287.034 233.367, 287.376 233.710 C 287.719 234.053, 288 233.535, 288 232.560 C 288 231.353, 288.506 230.980, 289.582 231.393 C 290.452 231.727, 291.828 232, 292.641 232 C 293.453 232, 293.840 232.450, 293.500 233 C 292.727 234.250, 294.025 234.270, 295.974 233.037 C 296.945 232.423, 297.706 232.513, 298.208 233.303 C 298.732 234.127, 298.974 233.983, 298.985 232.838 C 299 231.171, 299.790 231.071, 303.500 232.267 C 304.600 232.621, 307.075 232.527, 309 232.058 C 313.315 231.006, 311.913 230.831, 297.623 230.635 C 290.368 230.536, 287.614 230.843, 287.249 231.793 M 642.776 232.176 C 643.563 232.963, 643.625 233.747, 642.964 234.544 C 642.285 235.361, 642.495 236.166, 643.632 237.109 C 645.120 238.345, 645.208 238.232, 644.500 236 C 643.817 233.849, 643.916 233.685, 645.235 234.780 C 646.522 235.848, 646.833 235.653, 647.241 233.522 C 647.739 230.914, 646.611 230.048, 645.583 232.250 C 645.117 233.250, 644.883 233.250, 644.417 232.250 C 644.096 231.563, 643.331 231, 642.717 231 C 641.928 231, 641.946 231.346, 642.776 232.176 M 94 235.208 C 94 236.333, 94.744 237, 96 237 C 97.100 237, 98 236.564, 98 236.031 C 98 235.499, 97.325 235.322, 96.500 235.638 C 95.675 235.955, 95 235.716, 95 235.107 C 95 232.976, 97.949 234.024, 99.321 236.643 C 100.206 238.332, 100.960 238.873, 101.412 238.143 C 101.803 237.509, 101.535 236.993, 100.809 236.985 C 99.858 236.974, 99.910 236.704, 101 236 C 102.812 234.829, 105.312 234.686, 104.628 235.792 C 103.753 237.208, 108.248 236.940, 110.376 235.449 C 111.514 234.652, 112.007 233.964, 111.473 233.920 C 110.938 233.875, 106.787 233.744, 102.250 233.627 C 94.906 233.438, 94 233.612, 94 235.208 M 647.476 238.039 C 647.149 238.568, 645.753 239, 644.374 239 C 642.320 239, 641.980 239.363, 642.500 241 C 642.864 242.147, 642.680 243, 642.067 243 C 641.480 243, 641.112 242.457, 641.250 241.794 C 641.537 240.408, 633.190 238.884, 632.391 240.176 C 631.859 241.038, 633.882 241.355, 637.827 241.029 C 640.062 240.844, 640.091 240.931, 638.573 243.248 C 637.704 244.575, 637.332 246.021, 637.746 246.462 C 638.161 246.904, 636.848 246.967, 634.828 246.602 C 630.947 245.901, 628.586 247.490, 631.122 249.096 C 633.105 250.353, 638 250.201, 638 248.883 C 638 248.269, 638.801 247.976, 639.780 248.232 C 642.222 248.871, 644 246.685, 644 243.042 C 644 241.369, 644.450 240, 645 240 C 645.550 240, 646 241.713, 646 243.806 C 646 247.304, 646.222 247.607, 648.750 247.556 C 650.438 247.521, 651.403 247.983, 651.250 248.750 C 650.914 250.428, 655.915 250.385, 656.560 248.704 C 656.868 247.900, 658.470 247.497, 660.779 247.641 L 664.500 247.874 661.079 247.187 C 655.557 246.078, 655.792 243.703, 661.380 244.147 C 664.053 244.360, 666.006 244.090, 666.015 243.507 C 666.024 242.953, 666.508 243.175, 667.091 244 C 667.806 245.010, 668.037 245.065, 667.799 244.167 C 667.222 241.994, 654.999 241.993, 655 244.167 C 655 245.083, 655.563 246.084, 656.250 246.390 C 656.938 246.697, 656.375 246.847, 655 246.724 C 653.185 246.561, 652.466 245.884, 652.375 244.250 C 652.166 240.496, 652.030 239.995, 651.250 240.118 C 648.550 240.545, 646.689 239.911, 647.693 238.907 C 648.419 238.181, 649.408 238.136, 650.643 238.772 C 651.664 239.299, 653.175 239.531, 654 239.289 C 655.333 238.897, 655.333 238.966, 654 239.909 C 652.706 240.824, 652.740 240.971, 654.250 240.985 C 655.212 240.993, 656 240.550, 656 240 C 656 239.450, 656.702 239, 657.559 239 C 658.416 239, 658.840 239.450, 658.500 240 C 658.160 240.550, 658.359 241, 658.941 241 C 660.154 241, 660.372 239.346, 659.250 238.658 C 657.591 237.641, 648.033 237.138, 647.476 238.039 M 736.432 237.890 C 736.751 238.406, 736.447 239.057, 735.756 239.336 C 734.514 239.837, 739.102 240.450, 742 240.170 C 744.960 239.885, 748.085 241.053, 747.386 242.184 C 746.952 242.887, 747.143 243.030, 747.894 242.565 C 749.708 241.445, 747.297 239, 744.378 239 C 743.070 239, 741.993 238.438, 741.985 237.750 C 741.974 236.914, 741.643 236.997, 740.985 238 C 740.367 238.941, 739.720 239.127, 739.250 238.500 C 738.285 237.214, 735.663 236.646, 736.432 237.890 M 880.725 238.725 C 880.991 239.420, 881.654 239.714, 882.198 239.378 C 883.999 238.265, 891.292 238.856, 892.207 240.189 C 892.868 241.151, 893.027 241.001, 892.804 239.627 C 892.548 238.052, 891.523 237.730, 886.370 237.607 C 881.796 237.498, 880.363 237.782, 880.725 238.725 M 15.030 239.536 C 15.002 241.439, 15.636 241.580, 24.750 241.686 C 30.113 241.749, 33.710 241.501, 32.744 241.135 C 31.779 240.769, 27.840 240.547, 23.992 240.642 C 18.411 240.779, 16.799 240.478, 16.028 239.157 C 15.178 237.701, 15.057 237.747, 15.030 239.536 M 253.407 238.740 C 253.797 239.130, 258.274 239.813, 261.219 239.931 C 262.323 239.975, 262.732 240.536, 262.362 241.500 C 262.045 242.325, 262.311 243, 262.952 243 C 263.593 243, 263.859 242.581, 263.543 242.069 C 263.226 241.557, 263.475 240.824, 264.095 240.441 C 264.716 240.058, 265.551 240.273, 265.950 240.919 C 266.486 241.787, 266.990 241.717, 267.875 240.651 C 269.106 239.167, 272.449 239.466, 274.750 241.267 C 275.653 241.974, 276 241.725, 275.999 240.372 C 275.998 238.655, 275.047 238.495, 264.516 238.434 C 258.201 238.397, 253.202 238.535, 253.407 238.740 M 687.500 240 C 687.160 240.550, 687.385 241, 688 241 C 688.615 241, 688.858 241.420, 688.541 241.934 C 688.198 242.489, 691.525 242.828, 696.732 242.768 C 701.554 242.712, 704.287 242.489, 702.805 242.272 C 700.956 242.002, 700.283 241.426, 700.662 240.439 C 700.966 239.647, 700.716 239, 700.107 239 C 699.498 239, 699 239.675, 699 240.500 C 699 241.325, 698.550 242, 698 242 C 697.450 242, 697 241.325, 697 240.500 C 697 239.675, 696.550 239, 696 239 C 695.450 239, 695 239.675, 695 240.500 C 695 241.450, 694.044 242, 692.393 242 C 690.487 242, 689.941 241.597, 690.362 240.500 C 691.007 238.819, 688.500 238.381, 687.500 240 M 201.750 241.728 C 202.438 241.969, 203 242.606, 203 243.142 C 203 243.679, 202.550 243.840, 202 243.500 C 201.450 243.160, 201 243.310, 201 243.834 C 201 244.358, 201.675 245.045, 202.500 245.362 C 203.445 245.724, 204 245.350, 204 244.352 C 204 243.259, 204.621 242.929, 205.999 243.289 C 207.098 243.577, 208.293 243.335, 208.654 242.752 C 209.024 242.152, 208.837 241.983, 208.224 242.362 C 207.627 242.731, 206.890 242.632, 206.587 242.141 C 206.284 241.651, 204.791 241.259, 203.268 241.270 C 201.746 241.281, 201.063 241.487, 201.750 241.728 M 568.400 243.618 C 568.400 245.703, 568.867 246, 572.141 246 C 578.680 246, 578.418 242.167, 571.838 241.556 C 568.794 241.273, 568.400 241.509, 568.400 243.618 M 604 243.455 L 604 246 613.500 246 L 623 246 623 243.378 C 623 241.297, 622.723 240.985, 621.658 241.869 C 620.920 242.481, 619.922 242.649, 619.441 242.241 C 618.960 241.834, 619.169 242.287, 619.905 243.250 C 621.124 244.842, 620.914 245, 617.583 245 C 614.501 245, 614.125 244.779, 615.211 243.605 C 615.920 242.838, 616.950 242.460, 617.500 242.765 C 618.050 243.071, 618.151 242.937, 617.724 242.468 C 616.045 240.622, 613 240.969, 613 243.006 C 613 244.663, 612.329 245, 609.031 245 C 606.153 245, 605.202 244.637, 605.570 243.679 C 605.899 242.822, 607.205 242.515, 609.288 242.806 C 613.661 243.417, 612.416 242.431, 607.750 241.587 C 604.221 240.949, 604 241.060, 604 243.455 M 292.500 244 C 292.160 244.550, 292.130 245.401, 292.432 245.891 C 292.735 246.380, 291.823 247.541, 290.405 248.471 C 288.987 249.400, 288.080 250.413, 288.389 250.722 C 288.698 251.032, 289.618 250.732, 290.432 250.056 C 292.374 248.445, 293.946 249.489, 293.300 251.960 C 292.864 253.629, 292.007 253.887, 287.488 253.709 C 284.573 253.594, 282.398 253.838, 282.653 254.250 C 282.909 254.662, 288.491 255, 295.059 255 C 306.333 255, 307 254.888, 307 253 C 307 251.900, 306.550 251, 306 251 C 305.450 251, 305 251.686, 305 252.525 C 305 253.730, 303.842 254.013, 299.500 253.871 C 293.754 253.683, 293.271 253.230, 295.127 249.763 C 296.013 248.107, 295.941 247.429, 294.789 246.579 C 293.983 245.986, 293.514 244.938, 293.746 244.250 C 294.248 242.758, 293.376 242.583, 292.500 244 M 803.227 244.472 C 804.477 245.007, 805.725 245.682, 806 245.972 C 807.308 247.353, 810 246.960, 810 245.389 C 810 243.827, 810.162 243.836, 812 245.500 C 813.100 246.495, 814 246.804, 814 246.186 C 814 245.568, 814.603 245.294, 815.340 245.577 C 816.077 245.860, 817.163 245.508, 817.755 244.796 C 818.621 243.751, 817.096 243.500, 809.892 243.500 C 803.210 243.500, 801.527 243.746, 803.227 244.472 M 873.703 246.468 C 874.975 248.216, 876.376 248.903, 878.500 248.819 L 881.500 248.700 878.750 248.284 C 877.237 248.055, 876 247.461, 876 246.965 C 876 246.469, 876.675 246.322, 877.500 246.638 C 878.325 246.955, 879 246.716, 879 246.107 C 879 245.498, 878.438 244.967, 877.750 244.926 C 877.063 244.885, 875.466 244.659, 874.203 244.425 C 871.933 244.003, 871.927 244.028, 873.703 246.468 M 366.255 248.267 C 366.113 250.145, 366.176 250.150, 368.097 248.412 C 369.559 247.090, 369.986 246.995, 369.707 248.056 C 369.498 248.850, 369.517 249.162, 369.747 248.750 C 370.417 247.553, 372.786 247.883, 373.338 249.250 C 373.741 250.250, 373.858 250.250, 373.921 249.250 C 374.020 247.690, 377.697 247.590, 378.211 249.134 C 378.459 249.877, 379.152 249.705, 380.223 248.634 C 381.709 247.149, 382 247.143, 383.429 248.571 C 384.435 249.578, 385 249.714, 385 248.949 C 385 248.084, 385.446 248.125, 386.615 249.096 C 388.010 250.253, 388.181 250.185, 387.865 248.595 C 387.542 246.964, 386.299 246.730, 376.951 246.538 C 367.136 246.336, 366.391 246.457, 366.255 248.267 M 45.383 247.952 C 45.134 248.201, 43.258 248.354, 41.215 248.294 C 39.172 248.233, 38.288 248.400, 39.250 248.665 C 40.212 248.930, 41 249.507, 41 249.948 C 41 250.389, 42.117 250.750, 43.482 250.750 C 44.847 250.750, 45.739 250.387, 45.465 249.944 C 44.513 248.403, 46.848 247.991, 48.300 249.443 C 49.827 250.970, 51 250.534, 51 248.439 C 51 247.304, 46.432 246.908, 45.383 247.952 M 706.382 249.854 C 706.447 250.733, 705.960 251.463, 705.300 251.476 C 704.640 251.489, 703.515 252.091, 702.800 252.813 C 701.727 253.896, 702.025 253.923, 704.500 252.969 C 708.447 251.446, 712.091 251.043, 711.371 252.209 C 711.056 252.719, 710.183 252.900, 709.431 252.612 C 708.679 252.323, 707.830 252.466, 707.544 252.929 C 706.617 254.429, 711.563 254.693, 712.941 253.218 C 714.055 252.026, 714.054 251.651, 712.936 250.960 C 712.199 250.505, 711.237 250.354, 710.798 250.625 C 710.359 250.896, 710 250.694, 710 250.176 C 710 249.657, 709.160 249.013, 708.132 248.745 C 706.859 248.412, 706.302 248.765, 706.382 249.854 M 673 253.440 C 673 255.272, 675.103 255.497, 676.758 253.842 C 677.634 252.966, 678.329 253.026, 679.620 254.092 C 681.098 255.312, 681.260 255.300, 680.835 254 C 680.132 251.848, 673 251.337, 673 253.440 M 683.010 252.833 C 680.555 253.644, 682.314 254.772, 685.250 254.271 C 687.038 253.966, 689.962 253.672, 691.750 253.619 C 693.538 253.566, 695 253.221, 695 252.853 C 695 252.196, 684.991 252.179, 683.010 252.833 M 383.405 254.155 C 382.962 254.870, 383.130 255.038, 383.845 254.595 C 384.536 254.168, 385 254.532, 385 255.500 C 385 256.468, 384.536 256.832, 383.845 256.405 C 383.130 255.962, 382.962 256.130, 383.405 256.845 C 384.257 258.225, 390 258.409, 390 257.057 C 390 256.074, 386.088 253, 384.837 253 C 384.441 253, 383.797 253.520, 383.405 254.155 M 908.710 255 C 908.214 256.897, 908.680 257, 917.760 257 C 923.025 257, 927.146 256.873, 926.917 256.717 C 926.688 256.561, 925.626 255.774, 924.558 254.967 C 923.344 254.050, 922.897 253.968, 923.367 254.750 C 923.871 255.588, 923.440 256, 922.059 256 C 920.771 256, 919.994 255.345, 919.985 254.250 C 919.972 252.754, 919.828 252.718, 919 254 C 918.467 254.825, 918.017 255.050, 918 254.500 C 917.983 253.950, 917.533 254.175, 917 255 C 916.172 256.282, 916.028 256.246, 916.015 254.750 C 916.006 253.672, 915.232 253, 914 253 C 912.900 253, 912.112 253.506, 912.250 254.125 C 912.388 254.744, 911.866 255.480, 911.091 255.761 C 910.114 256.116, 909.874 255.771, 910.309 254.636 C 910.655 253.736, 910.554 253, 910.085 253 C 909.617 253, 908.998 253.900, 908.710 255 M 329.667 254.667 C 328.650 255.683, 328.872 257, 330.059 257 C 330.641 257, 330.840 256.550, 330.500 256 C 330.160 255.450, 330.610 255, 331.500 255 C 332.390 255, 332.914 255.338, 332.664 255.750 C 332.148 256.603, 333.989 258.380, 335.764 258.742 C 336.666 258.925, 336.678 258.388, 335.814 256.492 C 334.732 254.117, 331.250 253.084, 329.667 254.667 M 524.750 255.685 C 527.928 256.909, 525.255 257.527, 516.843 257.514 C 510.219 257.504, 507.612 257.853, 507.418 258.775 C 507.271 259.476, 507.379 259.589, 507.658 259.025 C 508.478 257.372, 511.008 257.816, 510.362 259.500 C 509.675 261.288, 506.336 261.507, 505.767 259.801 C 505.499 258.997, 505.175 259.102, 504.785 260.117 C 504.283 261.426, 506.066 261.631, 517.852 261.625 C 525.358 261.621, 530.712 261.445, 529.750 261.235 C 528.788 261.025, 527.993 260.324, 527.985 259.677 C 527.976 258.990, 527.566 259.124, 527 260 C 525.915 261.678, 525.653 260.067, 526.607 257.582 C 527.366 255.604, 529 255.508, 529 257.441 C 529 258.234, 529.520 259.203, 530.155 259.595 C 530.870 260.038, 531.038 259.870, 530.595 259.155 C 530.173 258.470, 530.517 258, 531.441 258 C 532.298 258, 533.007 258.563, 533.015 259.250 C 533.026 260.155, 533.271 260.120, 533.904 259.122 C 534.384 258.364, 535.277 258.053, 535.888 258.431 C 537.807 259.617, 537.106 260.850, 534.250 261.314 C 532.737 261.560, 534.778 261.746, 538.785 261.728 C 542.792 261.710, 546.349 261.244, 546.690 260.693 C 547.030 260.142, 546.837 259.983, 546.259 260.340 C 545.682 260.697, 544.932 260.266, 544.593 259.383 C 544.126 258.164, 544.402 257.939, 545.739 258.448 C 547.148 258.985, 547.251 258.868, 546.254 257.863 C 545.442 257.046, 542.514 256.679, 537.865 256.811 C 533.937 256.924, 530.223 256.642, 529.612 256.185 C 529 255.728, 527.375 255.320, 526 255.279 C 524.625 255.238, 524.063 255.420, 524.750 255.685 M 567.500 257.817 C 565.300 257.991, 563.050 258.620, 562.500 259.214 C 561.798 259.972, 562.072 260.091, 563.420 259.613 C 564.540 259.216, 565.654 259.441, 566.094 260.152 C 566.677 261.096, 567.221 261.061, 568.500 260 C 569.904 258.835, 570.289 258.844, 571.061 260.064 C 571.828 261.276, 571.972 261.253, 571.985 259.917 C 571.993 259.046, 572.675 258.333, 573.500 258.333 C 574.325 258.333, 575 258.694, 575 259.135 C 575 259.576, 575.681 259.676, 576.513 259.357 C 577.345 259.037, 578.695 259.332, 579.513 260.011 C 580.739 261.028, 581 260.916, 581 259.372 C 581 257.414, 577.572 257.019, 567.500 257.817 M 613.569 258.112 C 613.947 258.723, 613.636 259.616, 612.878 260.096 C 612.059 260.615, 616.973 260.920, 625 260.849 C 632.425 260.782, 637.460 260.529, 636.189 260.286 C 634.918 260.043, 633.632 259.205, 633.332 258.422 C 633.032 257.640, 632.398 257, 631.924 257 C 631.451 257, 631.293 257.600, 631.574 258.333 C 631.865 259.089, 631.418 259.667, 630.543 259.667 C 629.694 259.667, 629 259.067, 629 258.333 C 629 256.525, 627.352 256.641, 626.638 258.500 C 626.232 259.560, 624.578 260, 621 260 C 617.422 260, 615.768 259.560, 615.362 258.500 C 615.045 257.675, 614.358 257, 613.834 257 C 613.310 257, 613.191 257.500, 613.569 258.112 M 52.058 261.570 C 52.566 262.183, 52.762 262.905, 52.491 263.175 C 52.221 263.446, 52.656 263.667, 53.457 263.667 C 54.258 263.667, 55.131 263.102, 55.396 262.411 C 55.670 261.698, 56.763 261.387, 57.928 261.691 C 59.055 261.986, 59.731 262.626, 59.430 263.114 C 59.128 263.601, 59.584 264, 60.441 264 C 61.298 264, 62.014 263.212, 62.032 262.250 C 62.060 260.719, 62.217 260.688, 63.285 262 C 64.603 263.618, 67.075 264.477, 66.882 263.250 C 66.542 261.102, 67.199 260.870, 69 262.500 C 70.321 263.695, 71 263.881, 71 263.048 C 71 262.354, 71.642 262.032, 72.427 262.334 C 73.212 262.635, 74.298 262.345, 74.842 261.691 C 75.596 260.781, 72.916 260.495, 63.481 260.478 C 54.516 260.461, 51.386 260.761, 52.058 261.570 M 986.736 260.598 C 985.946 261.387, 986.975 264, 988.076 264 C 988.549 264, 988.684 263.212, 988.376 262.250 C 987.901 260.771, 988.100 260.811, 989.657 262.506 C 990.671 263.609, 991.391 264.326, 991.259 264.098 C 991.126 263.870, 991.576 262.994, 992.259 262.150 C 993.249 260.926, 993.247 260.768, 992.250 261.367 C 991.563 261.780, 991 261.641, 991 261.059 C 991 259.937, 987.748 259.586, 986.736 260.598 M 447.121 263.176 C 446.119 265.854, 447.260 267.006, 450.163 266.247 C 451.456 265.909, 452.004 265.034, 451.802 263.630 C 451.371 260.620, 448.193 260.311, 447.121 263.176 M 131.337 263.250 C 129.839 265.648, 130.076 267.188, 131.827 266.444 C 132.747 266.053, 134.850 265.740, 136.500 265.748 C 138.729 265.758, 138.918 265.646, 137.235 265.309 C 135.931 265.049, 135.254 264.398, 135.640 263.774 C 136.082 263.058, 135.834 262.988, 134.905 263.567 C 132.926 264.802, 130.880 265.003, 131.564 263.896 C 131.880 263.385, 132.557 263.226, 133.069 263.543 C 133.581 263.859, 134 263.641, 134 263.059 C 134 261.603, 132.289 261.726, 131.337 263.250 M 706.295 263.911 C 702.509 265.578, 701.149 268, 704 268 C 705.311 268, 705.751 267.515, 705.362 266.500 C 704.713 264.811, 705.788 264.580, 707.946 265.946 C 708.830 266.505, 710.094 266.485, 711.196 265.895 C 712.616 265.135, 713.015 265.310, 713.070 266.715 C 713.134 268.323, 713.215 268.310, 713.894 266.579 C 714.607 264.757, 714.733 264.781, 716.323 267.051 C 717.650 268.945, 718 269.086, 718 267.723 C 718 266.684, 718.771 266, 719.941 266 C 721.009 266, 722.120 265.615, 722.411 265.144 C 722.702 264.674, 721.716 264.521, 720.220 264.806 C 717.780 265.269, 717.641 265.152, 718.872 263.661 C 720.542 261.640, 718.943 261.409, 715.684 263.201 C 712.527 264.937, 710.188 265.150, 709.820 263.733 C 709.573 262.780, 708.772 262.821, 706.295 263.911 M 597 266.500 C 597 268.934, 597.189 269, 604.167 269 C 608.108 269, 611.019 268.686, 610.635 268.301 C 610.250 267.917, 607.475 267.580, 604.467 267.551 C 601.412 267.523, 599.066 267.058, 599.152 266.500 C 599.237 265.950, 600.250 265.605, 601.403 265.734 C 603.449 265.961, 603.452 265.945, 601.500 265.054 C 598.142 263.521, 597 263.888, 597 266.500 M 253 269.247 C 253 271.178, 254.512 271.599, 255.530 269.951 C 255.966 269.246, 256.703 269.328, 257.781 270.201 C 258.983 271.175, 259.196 271.187, 258.633 270.250 C 258.160 269.463, 258.460 269, 259.441 269 C 260.298 269, 261 269.422, 261 269.938 C 261 270.454, 261.869 270.810, 262.931 270.730 C 263.993 270.650, 264.641 270.228, 264.372 269.792 C 263.597 268.539, 265.461 268.871, 266.947 270.250 C 268.024 271.250, 268.152 271.250, 267.588 270.250 C 267.200 269.563, 267.359 269, 267.941 269 C 268.523 269, 269 269.450, 269 270 C 269 270.550, 269.436 271, 269.969 271 C 270.501 271, 270.691 270.359, 270.390 269.575 C 269.755 267.919, 275.574 268.426, 277.750 270.216 C 278.671 270.974, 279 270.752, 279 269.372 C 279 267.639, 278.037 267.500, 266 267.497 C 254.277 267.495, 253 267.667, 253 269.247 M 437 268.750 C 437 269.950, 437.786 270.500, 439.500 270.500 C 440.875 270.500, 442 270.275, 442.001 270 C 442.002 268.942, 447.536 269.240, 448.323 270.340 C 448.943 271.208, 449.280 271.185, 449.659 270.250 C 450.293 268.690, 452.704 268.611, 453.211 270.134 C 453.459 270.877, 454.152 270.705, 455.223 269.634 C 456.709 268.149, 457 268.143, 458.429 269.571 C 459.435 270.578, 460 270.714, 460 269.949 C 460 269.084, 460.446 269.125, 461.615 270.096 C 463.014 271.257, 463.181 271.180, 462.863 269.525 C 462.530 267.800, 461.565 267.616, 452.968 267.643 C 447.728 267.659, 442.179 267.989, 440.637 268.376 C 438.793 268.839, 438.053 268.724, 438.475 268.040 C 438.829 267.468, 438.641 267, 438.059 267 C 437.477 267, 437 267.788, 437 268.750 M 86.164 269.632 C 86.472 271.243, 87.553 271.519, 94.011 271.638 C 98.130 271.715, 100.515 271.574, 99.311 271.327 C 98.108 271.079, 96.922 270.117, 96.677 269.189 C 96.265 267.625, 96.223 267.627, 96.116 269.214 C 96.024 270.574, 95.077 270.908, 91.519 270.837 C 89.055 270.788, 87.262 270.385, 87.535 269.943 C 87.809 269.500, 87.532 268.829, 86.920 268.451 C 86.220 268.018, 85.940 268.456, 86.164 269.632 M 547.804 270.244 C 547.364 272.549, 547.610 272.682, 552.670 272.887 C 557.587 273.086, 559.488 272.038, 557 270.500 C 556.450 270.160, 555.993 270.471, 555.985 271.191 C 555.974 272.142, 555.704 272.090, 555 271 C 554.354 270, 554.026 269.917, 554.015 270.750 C 554.007 271.438, 553.502 272, 552.893 272 C 552.284 272, 552.045 271.325, 552.362 270.500 C 552.678 269.675, 552.501 269, 551.969 269 C 551.436 269, 551 269.675, 551 270.500 C 551 271.325, 550.523 272, 549.941 272 C 549.359 272, 549.104 271.641, 549.375 271.202 C 549.646 270.763, 549.508 269.822, 549.068 269.110 C 548.505 268.198, 548.131 268.533, 547.804 270.244 M 16.759 270.815 C 17.200 271.963, 16.724 272.180, 14.640 271.782 C 13.162 271.499, 11.742 271.609, 11.485 272.025 C 11.228 272.441, 16.526 272.780, 23.259 272.779 C 29.991 272.778, 34.460 272.567, 33.189 272.311 C 31.918 272.055, 30.632 271.205, 30.332 270.422 C 30.032 269.640, 29.336 269, 28.786 269 C 28.236 269, 28.045 269.675, 28.362 270.500 C 28.712 271.414, 28.363 272, 27.469 272 C 26.661 272, 26 271.495, 26 270.878 C 26 270.086, 25.573 270.110, 24.548 270.960 C 23.091 272.169, 19 271.534, 19 270.099 C 19 269.678, 18.368 269.333, 17.595 269.333 C 16.766 269.333, 16.423 269.939, 16.759 270.815 M 313 271.062 C 313 273.292, 309.235 273.731, 305.814 271.900 C 304.258 271.068, 303.936 271.088, 304.491 271.985 C 305.018 272.839, 304.088 273.087, 301.154 272.875 C 298.916 272.714, 296.812 272.855, 296.478 273.189 C 296.144 273.523, 301.975 273.861, 309.435 273.941 C 322.648 274.082, 323 274.031, 323 271.960 C 323 270.681, 322.502 270.016, 321.750 270.292 C 321.063 270.544, 320.613 271.256, 320.750 271.875 C 320.899 272.545, 319.556 273, 317.429 273 C 314.182 273, 314 272.857, 315.429 271.429 C 317.404 269.453, 317.405 269.456, 315 269.275 C 313.636 269.172, 313 269.741, 313 271.062 M 48.015 274.167 C 48.007 275.083, 47.438 276.060, 46.750 276.338 C 46.063 276.615, 50 276.799, 55.500 276.746 C 61 276.694, 63.482 276.473, 61.016 276.256 C 58.550 276.040, 56.195 275.331, 55.782 274.681 C 55.223 273.803, 55.027 273.830, 55.015 274.784 C 54.995 276.502, 50.135 275.826, 48.941 273.940 C 48.182 272.739, 48.028 272.776, 48.015 274.167 M 110.206 275.750 C 110.370 276.728, 109.948 277.390, 109.250 277.250 C 108.563 277.113, 108 277.498, 108 278.107 C 108 278.716, 108.712 278.941, 109.582 278.607 C 110.452 278.273, 115.514 277.948, 120.832 277.884 C 126.149 277.820, 129.707 277.561, 128.738 277.308 C 127.769 277.055, 127.186 276.508, 127.444 276.091 C 127.701 275.674, 127.277 275.333, 126.500 275.333 C 125.723 275.333, 125.320 275.708, 125.603 276.167 C 125.886 276.625, 125.143 277, 123.952 277 C 122.438 277, 121.959 276.549, 122.362 275.500 C 122.678 274.675, 122.533 274, 122.040 274 C 121.547 274, 120.468 274.675, 119.643 275.500 C 118.818 276.325, 116.761 277, 115.071 277 C 113.008 277, 112 276.508, 112 275.500 C 112 274.675, 111.530 274, 110.956 274 C 110.382 274, 110.045 274.788, 110.206 275.750 M 367.310 275.681 C 367.368 276.880, 367.733 277.665, 368.122 277.424 C 368.511 277.184, 368.989 277.466, 369.184 278.051 C 369.379 278.636, 370.343 278.806, 371.327 278.428 C 372.310 278.051, 372.878 277.125, 372.589 276.371 C 372.300 275.617, 372.574 275, 373.198 275 C 373.822 275, 374.044 274.711, 373.691 274.357 C 373.337 274.004, 372.362 274.284, 371.524 274.980 C 370.285 276.009, 369.997 275.989, 369.985 274.872 C 369.972 273.716, 369.833 273.715, 369.106 274.863 C 368.377 276.014, 368.161 276.014, 367.723 274.863 C 367.437 274.113, 367.251 274.481, 367.310 275.681 M 359.250 275.731 C 357.298 276.411, 357.783 279.813, 360 281 C 361.100 281.589, 362 282.785, 362 283.658 C 362 285.021, 362.234 285.051, 363.654 283.873 C 365.430 282.398, 368.724 282.559, 370.750 284.220 C 371.674 284.977, 372 284.731, 372 283.277 C 372 281.630, 371.390 281.345, 368.270 281.535 C 363.225 281.841, 362.219 281.306, 362.738 278.591 C 363.189 276.232, 361.585 274.916, 359.250 275.731 M 406.667 275.667 C 405.224 277.110, 406.042 280, 407.893 280 C 409.860 280, 411.423 277.494, 410.444 275.910 C 409.787 274.846, 407.626 274.707, 406.667 275.667 M 828.620 279.195 C 828.894 279.638, 829.954 280, 830.976 280 C 831.997 280, 833.060 280.563, 833.338 281.250 C 833.710 282.173, 833.863 282.141, 833.921 281.128 C 833.982 280.060, 834.314 280.016, 835.411 280.926 C 836.299 281.663, 837.046 281.734, 837.427 281.118 C 837.760 280.579, 837.540 279.833, 836.937 279.461 C 835.345 278.477, 828.032 278.243, 828.620 279.195 M 951.428 280.250 C 951.428 281.212, 951.782 282, 952.214 282 C 952.646 282, 953 281.550, 953 281 C 953 280.450, 953.900 280, 955 280 C 956.100 280, 957 280.450, 957 281 C 957 281.550, 957.477 282, 958.059 282 C 958.641 282, 958.840 281.550, 958.500 281 C 958.133 280.407, 959.295 280, 961.358 280 C 963.269 280, 965.060 280.563, 965.338 281.250 C 965.617 281.943, 965.877 281.651, 965.921 280.595 C 965.997 278.753, 966.067 278.750, 968 280.500 C 969.134 281.526, 970 281.810, 970 281.155 C 970 280.520, 970.975 280, 972.167 280 C 973.358 280, 974.054 279.721, 973.713 279.379 C 973.371 279.038, 968.218 278.700, 962.260 278.629 C 952.561 278.514, 951.428 278.683, 951.428 280.250 M 742.030 281.750 C 742 283.979, 742.123 283.999, 755.250 283.850 C 762.538 283.768, 767.263 283.513, 765.750 283.284 C 764.223 283.052, 763 282.230, 763 281.434 C 763 280.645, 762.550 280, 762 280 C 761.450 280, 761 280.675, 761 281.500 C 761 282.325, 760.550 283, 760 283 C 759.450 283, 759 282.625, 759 282.167 C 759 281.708, 758.325 281.333, 757.500 281.333 C 756.675 281.333, 756 281.708, 756 282.167 C 756 282.625, 755.325 283, 754.500 283 C 753.675 283, 753 282.325, 753 281.500 C 753 280.675, 752.550 280, 752 280 C 751.450 280, 751 280.675, 751 281.500 C 751 283.722, 744.399 283.514, 743.080 281.250 C 742.170 279.687, 742.058 279.741, 742.030 281.750 M 349.429 283.012 C 349.429 284.155, 349.834 284.576, 350.464 284.089 C 352.208 282.742, 355.637 282.218, 357.154 283.066 C 357.944 283.509, 359.246 283.457, 360.046 282.951 C 361.163 282.244, 360.921 282.014, 359 281.958 C 357.625 281.918, 354.909 281.716, 352.964 281.509 C 350.039 281.199, 349.429 281.458, 349.429 283.012 M 869.260 282.765 C 868.981 283.492, 869.034 284.367, 869.376 284.710 C 869.719 285.053, 870 284.553, 870 283.599 C 870 282.416, 870.556 282.030, 871.750 282.385 C 876.687 283.852, 878.766 284.016, 881.024 283.115 C 883.193 282.249, 883.252 282.107, 881.500 281.970 C 873.292 281.326, 869.723 281.558, 869.260 282.765 M 140.457 282.931 C 140.774 283.443, 140.575 284.144, 140.016 284.490 C 139.457 284.835, 138.993 284.529, 138.985 283.809 C 138.974 282.868, 138.762 282.825, 138.234 283.656 C 137.802 284.334, 135.296 284.738, 132.167 284.634 C 129.235 284.536, 126.656 284.748, 126.435 285.104 C 126.215 285.461, 129.855 285.783, 134.523 285.821 C 139.191 285.858, 143.431 286.149, 143.945 286.466 C 144.459 286.783, 144.813 286.165, 144.732 285.091 C 144.651 284.017, 144.228 283.359, 143.792 283.628 C 143.357 283.898, 143 283.641, 143 283.059 C 143 282.477, 142.298 282, 141.441 282 C 140.584 282, 140.141 282.419, 140.457 282.931 M 404.658 282.686 C 402.964 283.142, 402.999 283.311, 405.095 284.779 C 406.731 285.925, 407.486 286.041, 407.771 285.188 C 408.214 283.858, 414 283.528, 414 284.833 C 414 285.292, 414.675 285.667, 415.500 285.667 C 416.325 285.667, 417 285.067, 417 284.333 C 417 283.499, 415.785 282.995, 413.750 282.986 C 411.962 282.979, 409.600 282.796, 408.500 282.581 C 407.400 282.366, 405.671 282.413, 404.658 282.686 M 94.420 283.870 C 94.804 284.492, 94.615 285, 94 285 C 93.385 285, 93.160 285.450, 93.500 286 C 93.840 286.550, 93.390 287, 92.500 287 C 91.472 287, 91.156 286.544, 91.633 285.750 C 92.120 284.939, 91.774 284.995, 90.650 285.908 C 88.283 287.828, 90.088 289.558, 92.893 288.057 C 94.052 287.437, 95 286.469, 95 285.906 C 95 285.343, 95.508 285.196, 96.130 285.580 C 96.803 285.996, 97.081 285.743, 96.817 284.952 C 96.574 284.222, 95.778 283.426, 95.048 283.183 C 94.257 282.919, 94.004 283.197, 94.420 283.870 M 726.116 287.750 C 726.002 289.954, 726.225 290, 737 290 C 747.333 290, 748 289.879, 748 288 C 748 285.808, 746.532 285.330, 745.405 287.155 C 744.932 287.918, 745.134 288.035, 746 287.500 C 746.885 286.953, 747.068 287.081, 746.565 287.894 C 745.992 288.821, 745.455 288.799, 744.219 287.799 C 743.017 286.825, 742.804 286.813, 743.367 287.750 C 743.871 288.588, 743.440 289, 742.059 289 C 740.895 289, 740 288.348, 740 287.500 C 740 286.675, 739.550 286, 739 286 C 738.450 286, 738 286.675, 738 287.500 C 738 288.433, 737.056 289, 735.500 289 C 734.125 289, 733 288.625, 733 288.167 C 733 287.708, 732.325 287.333, 731.500 287.333 C 730.675 287.333, 730 287.708, 730 288.167 C 730 289.773, 727.142 288.982, 726.689 287.250 C 726.345 285.933, 726.203 286.057, 726.116 287.750 M 568.660 288.557 C 568.989 289.414, 569.852 289.887, 570.578 289.608 C 571.360 289.308, 571.698 289.624, 571.406 290.384 C 571.042 291.334, 572.373 291.667, 576.535 291.667 C 580.366 291.667, 581.647 291.382, 580.557 290.772 C 579.677 290.280, 579.190 289.502, 579.473 289.043 C 579.757 288.585, 579.331 287.957, 578.526 287.648 C 577.722 287.340, 576.819 287.485, 576.519 287.970 C 576.205 288.477, 574.599 288.459, 572.743 287.926 C 568.392 286.678, 567.965 286.744, 568.660 288.557 M 581.427 288.119 C 581.110 288.631, 581.429 288.926, 582.135 288.775 C 582.841 288.624, 583.485 289.446, 583.566 290.603 C 583.701 292.532, 583.147 292.722, 576.856 292.905 C 572.596 293.030, 570 292.707, 570 292.053 C 570 291.474, 569.523 291, 568.941 291 C 568.359 291, 568.141 291.419, 568.458 291.932 C 568.790 292.470, 565.963 292.926, 561.767 293.012 C 557.770 293.095, 552.025 293.231, 549 293.317 C 545.975 293.402, 542.600 293.253, 541.500 292.986 C 539.790 292.571, 539.521 292.973, 539.648 295.757 C 539.768 298.384, 539.352 299.125, 537.493 299.591 C 533.820 300.513, 530.316 304.738, 531.960 306.263 C 533.038 307.263, 533.133 307.213, 532.455 306 C 531.732 304.707, 531.850 304.690, 533.308 305.872 C 534.501 306.841, 535 306.897, 535 306.063 C 535 305.390, 535.523 305.205, 536.217 305.634 C 537.499 306.427, 569.889 306.346, 603.500 305.465 C 614.500 305.177, 624.175 304.951, 625 304.962 C 654.154 305.360, 707.931 304.402, 708.866 303.468 C 709.123 303.210, 708.133 303, 706.667 303 C 704.173 303, 704 302.708, 704 298.500 L 704 294 708.097 294 L 712.193 294 711.847 299.001 C 711.648 301.859, 711.928 304.044, 712.500 304.101 C 716.352 304.484, 731.995 304.403, 731.997 304 C 731.998 303.725, 739.198 303.582, 747.998 303.681 C 763.971 303.862, 763.997 303.859, 764.579 301.540 C 764.900 300.262, 765.013 298.155, 764.831 296.858 C 764.355 293.468, 769.619 292.796, 770.838 296.092 C 772.233 299.863, 771.092 303, 768.324 303 C 766.981 303, 766.108 303.365, 766.383 303.811 C 766.659 304.257, 768.823 304.519, 771.192 304.392 C 773.562 304.265, 779.446 304.012, 784.270 303.830 L 793.040 303.500 792.453 300.809 C 791.708 297.388, 793.490 294, 796.035 294 C 797.518 294, 798.037 294.735, 798.150 297 C 798.232 298.650, 798.345 300.542, 798.400 301.205 C 798.455 301.868, 797.375 302.740, 796 303.143 C 794.625 303.545, 799.350 303.791, 806.500 303.688 L 819.500 303.500 819.597 299 C 819.670 295.663, 820.122 294.416, 821.347 294.177 C 822.345 293.981, 823 294.505, 823 295.498 C 823 296.403, 823.690 297.833, 824.534 298.677 C 825.465 299.608, 825.816 301.004, 825.427 302.231 C 824.998 303.583, 825.155 304.022, 825.902 303.561 C 827.513 302.565, 843.910 302.342, 843.301 303.324 C 843.020 303.777, 843.757 303.552, 844.937 302.824 C 846.590 301.805, 847.017 300.694, 846.792 298 C 846.528 294.834, 846.764 294.470, 849.273 294.181 C 851.974 293.871, 852.029 293.964, 851.418 297.784 C 850.732 302.080, 851.582 302.936, 856 302.399 C 859.394 301.986, 868.017 301.918, 876.623 302.237 C 882.309 302.447, 883.641 302.224, 883.222 301.134 C 882.802 300.042, 883.114 299.991, 884.771 300.878 C 889.752 303.543, 904.537 303.311, 905.189 300.557 C 905.424 299.566, 906.110 299.493, 908 300.258 L 910.500 301.271 908 301.931 C 905.971 302.468, 905.816 302.714, 907.177 303.237 C 908.126 303.601, 909.373 303.256, 910.049 302.441 C 910.707 301.648, 910.852 300.993, 910.372 300.985 C 909.893 300.976, 910.175 300.543, 911 300.021 C 912.083 299.336, 912.688 299.549, 913.179 300.787 C 913.709 302.120, 913.875 301.957, 913.930 300.050 C 913.984 298.144, 914.267 297.867, 915.200 298.800 C 915.860 299.460, 917.885 300, 919.700 300 C 921.515 300, 923 300.498, 923 301.107 C 923 301.748, 922.264 301.934, 921.250 301.548 C 919.879 301.026, 919.762 301.145, 920.708 302.098 C 921.656 303.054, 922.263 303.027, 923.534 301.972 C 924.894 300.843, 925.297 300.857, 926.061 302.064 C 926.619 302.947, 926.975 303.045, 926.985 302.320 C 926.995 301.523, 927.895 301.376, 929.750 301.868 C 931.263 302.268, 933.625 302.492, 935 302.365 C 937.342 302.149, 943.449 302.004, 954 301.914 C 960.782 301.856, 962.676 301.514, 964.473 300.022 C 965.863 298.869, 966.066 298.878, 965.806 300.081 C 965.419 301.874, 971.544 302.623, 973.476 301.020 C 974.336 300.306, 975.042 300.258, 975.430 300.887 C 976.081 301.941, 991.831 302.182, 993.500 301.163 C 994.050 300.827, 995.175 300.541, 996 300.526 C 996.905 300.510, 997.539 299.496, 997.598 297.968 C 997.652 296.576, 998.220 294.457, 998.861 293.260 C 1000.971 289.316, 996.447 288.502, 983 290.405 C 980.525 290.755, 973.325 291.219, 967 291.436 C 960.675 291.653, 954.712 292.142, 953.750 292.522 C 952.608 292.974, 951.989 292.743, 951.968 291.857 C 951.943 290.788, 951.677 290.819, 950.715 292 C 949.394 293.621, 946.492 294.631, 947.407 293.151 C 947.725 292.637, 941.878 292.231, 933.731 292.202 C 925.904 292.173, 919.275 292.082, 919 291.999 C 916.574 291.262, 914.902 291.350, 914.349 292.244 C 913.961 292.872, 914.165 293.016, 914.845 292.595 C 916.402 291.633, 916.363 295.237, 914.800 296.800 C 911.826 299.774, 908.480 296.337, 911.307 293.213 C 912.765 291.602, 911.871 291.501, 896.342 291.515 C 887.259 291.523, 879.614 291.184, 879.353 290.762 C 879.092 290.340, 878.035 290.446, 877.005 290.997 C 874.903 292.122, 870.456 290.868, 869.824 288.973 C 869.195 287.086, 856.129 287.092, 855.765 288.980 C 855.553 290.081, 854.098 290.527, 850.486 290.598 C 847.744 290.652, 828.175 291.054, 807 291.491 C 785.825 291.928, 740.263 292.327, 705.750 292.377 C 671.237 292.427, 643 292.782, 643 293.164 C 643 293.547, 641.763 293.525, 640.250 293.116 C 637.256 292.305, 595.408 292.697, 593.056 293.558 C 591.979 293.952, 592.043 293.610, 593.306 292.214 C 595.588 289.693, 595.441 288, 592.941 288 C 591.801 288, 591.162 288.454, 591.510 289.016 C 591.856 289.575, 592.627 289.731, 593.224 289.362 C 593.871 288.961, 594.021 289.156, 593.595 289.845 C 593.203 290.480, 591.446 291.061, 589.691 291.136 C 587.339 291.237, 587.091 291.386, 588.750 291.706 C 589.987 291.944, 591 292.495, 591 292.931 C 591 293.366, 589.875 293.508, 588.500 293.245 C 586.134 292.792, 585.587 291.978, 585.898 289.371 C 586.067 287.947, 582.202 286.865, 581.427 288.119 M 374.345 289.543 C 374.019 290.392, 374.070 291.404, 374.459 291.792 C 375.445 292.779, 381.971 292.762, 381.360 291.774 C 381.086 291.330, 380.443 291.226, 379.931 291.543 C 379.419 291.859, 379 291.390, 379 290.500 C 379 289.610, 379.419 289.141, 379.931 289.457 C 380.443 289.774, 381.120 289.615, 381.436 289.104 C 382.456 287.453, 378.764 288.602, 377.501 290.329 C 376.829 291.248, 375.992 292, 375.640 292 C 374.702 292, 375.335 289.621, 376.500 288.765 C 377.115 288.314, 377.006 288.025, 376.219 288.015 C 375.514 288.007, 374.671 288.694, 374.345 289.543 M 857.390 290.181 C 856.773 291.174, 858.829 292.224, 859.989 291.507 C 860.555 291.157, 860.723 291.558, 860.382 292.448 C 859.949 293.574, 860.419 294, 862.093 294 C 863.887 294, 864.133 293.733, 863.200 292.800 C 861.718 291.318, 861.613 289.643, 863.057 290.535 C 865.160 291.835, 869 291.739, 869 290.386 C 869 288.977, 858.256 288.786, 857.390 290.181 M 129.139 292.893 C 128.391 293.367, 126.816 293.580, 125.639 293.366 C 124.463 293.153, 124.063 293.245, 124.750 293.572 C 128.419 295.317, 124.422 297.013, 119.250 295.906 C 116.929 295.410, 116 295.572, 116 296.476 C 116 297.480, 107.136 297.690, 73 297.496 C 46.872 297.347, 30 297.618, 30 298.185 C 30 298.698, 29.559 298.845, 29.020 298.512 C 28.480 298.179, 28.818 299.274, 29.770 300.947 C 30.721 302.619, 31.986 303.990, 32.581 303.994 C 33.176 303.997, 34.256 305.110, 34.982 306.466 C 35.708 307.822, 36.684 308.696, 37.151 308.407 C 37.618 308.118, 38 308.300, 38 308.812 C 38 309.347, 39.806 309.451, 42.250 309.057 C 44.587 308.681, 64.162 308.402, 85.750 308.437 C 107.337 308.471, 125 308.136, 125 307.691 C 125 307.246, 125.563 307.200, 126.250 307.588 C 126.938 307.976, 126.487 307.310, 125.250 306.108 C 121.642 302.603, 123.265 296.328, 127.566 297.154 C 129.775 297.577, 130.617 303.551, 128.780 305.765 C 127.570 307.223, 127.534 307.180, 131.284 308.791 C 133.473 309.732, 134.169 309.722, 134.544 308.744 C 135.009 307.533, 153.677 307.114, 155.682 308.269 C 156.132 308.529, 157.400 308.578, 158.500 308.380 C 159.600 308.181, 165.354 307.946, 171.286 307.856 C 177.218 307.767, 182.307 307.312, 182.595 306.847 C 182.883 306.381, 182.191 306, 181.059 306 C 179.297 306, 179 305.375, 179 301.664 L 179 297.328 172.809 297.105 C 169.403 296.982, 166.366 296.732, 166.059 296.548 C 165.751 296.365, 163.700 296.517, 161.500 296.885 C 157.529 297.549, 157.500 297.587, 157.500 302.027 C 157.500 306.613, 157.020 306.955, 151.750 306.119 C 150.629 305.941, 150.845 300.214, 152 299.500 C 153.756 298.415, 153.075 297.269, 150.750 297.397 C 149.303 297.476, 148.311 296.826, 147.970 295.574 C 147.350 293.298, 142.847 291.800, 140.868 293.212 C 139.810 293.968, 139.889 294.064, 141.218 293.638 C 143.284 292.976, 144.541 294.547, 142.804 295.621 C 140.821 296.847, 134.598 296.034, 133.702 294.432 C 133.248 293.621, 132.407 293.249, 131.832 293.604 C 131.151 294.024, 131.260 294.550, 132.143 295.110 C 133.049 295.683, 132.336 295.967, 130 295.962 L 126.500 295.956 129 294 C 131.537 292.015, 131.625 291.318, 129.139 292.893 M 439 294.325 C 433.225 294.795, 402.850 295.225, 371.500 295.280 C 332.618 295.349, 314.256 295.717, 313.731 296.440 C 313.225 297.138, 312.504 296.903, 311.621 295.750 C 309.979 293.608, 307 293.447, 307 295.500 C 307 297.485, 305.101 297.426, 304.329 295.416 C 303.944 294.412, 303.479 294.224, 303.060 294.903 C 302.650 295.567, 296.715 296.074, 287.449 296.237 C 274.753 296.460, 272.554 296.726, 272.861 298 C 273.060 298.825, 273.234 301.086, 273.248 303.024 L 273.273 306.548 285.124 306.720 L 296.975 306.892 295.373 304.446 C 293.897 302.194, 293.903 301.797, 295.448 299.439 C 298.263 295.142, 300.514 296.628, 300.418 302.720 C 300.363 306.218, 300.689 307.684, 301.418 307.216 C 302.013 306.835, 306.775 306.463, 312 306.391 L 321.500 306.260 321.807 301.568 C 322.056 297.777, 322.440 296.942, 323.807 297.224 C 324.738 297.416, 325.380 298.292, 325.232 299.172 C 325.085 300.052, 325.648 301.035, 326.482 301.355 C 328.569 302.155, 328.398 305.759, 326.250 306.267 C 325.288 306.495, 329.675 306.629, 336 306.566 C 342.325 306.503, 348.063 306.098, 348.750 305.667 C 350.269 304.713, 350.399 301.365, 348.951 300.470 C 348.235 300.027, 348.273 299.376, 349.074 298.411 C 351.087 295.986, 356.052 296.967, 354.117 299.408 C 353.641 300.009, 353.048 301.962, 352.799 303.750 L 352.346 307 360.423 307.118 C 364.865 307.184, 368.915 307.158, 369.422 307.061 C 371.039 306.753, 403.773 305.916, 425.488 305.628 L 446.476 305.350 448.330 302.175 C 449.350 300.429, 450.593 299, 451.092 299 C 451.591 299, 452 298.100, 452 297 C 452 295.900, 452.525 295, 453.167 295 C 454.991 295, 453.170 293.635, 451.230 293.548 C 450.278 293.506, 444.775 293.855, 439 294.325 M 872 295 C 871.411 296.100, 871.058 297.034, 871.215 297.077 C 875.292 298.170, 877.346 297.066, 876.300 294.341 C 875.540 292.358, 873.224 292.713, 872 295 M 622.050 295.440 C 619.851 298.090, 621.154 302.460, 624.250 302.816 C 625.763 302.990, 627.038 302.765, 627.083 302.316 C 627.129 301.867, 627.298 300.375, 627.458 299 C 627.967 294.643, 624.568 292.405, 622.050 295.440 M 650.080 296.415 C 646.801 299.905, 647.992 303, 652.613 303 C 656.085 303, 656.090 302.994, 655.414 299.250 C 654.298 293.066, 653.583 292.686, 650.080 296.415 M 677 298.500 C 677 302.833, 677.111 303, 680 303 C 682.349 303, 683 302.559, 683 300.969 C 683 299.851, 682.325 298.678, 681.500 298.362 C 680.675 298.045, 680 296.934, 680 295.893 C 680 294.852, 679.325 294, 678.500 294 C 677.389 294, 677 295.167, 677 298.500 M 766 298.500 C 766 301.333, 766.381 302, 768 302 C 770.064 302, 770.762 299.589, 769.011 298.507 C 768.424 298.144, 768.290 298.593, 768.681 299.612 C 769.128 300.776, 768.964 301.096, 768.170 300.605 C 766.336 299.471, 766.680 295.663, 768.552 296.382 C 769.442 296.723, 769.843 296.555, 769.493 295.989 C 768.029 293.621, 766 295.080, 766 298.500 M 184.250 296.698 C 182.706 297.277, 182.603 300.637, 184.101 301.562 C 184.706 301.936, 184.962 303.438, 184.670 304.898 L 184.139 307.553 195.419 307.527 L 206.698 307.500 206.270 303 C 205.622 296.183, 205.495 295.998, 202.128 296.963 C 200.490 297.433, 198.982 297.649, 198.776 297.443 C 198.166 296.833, 185.609 296.189, 184.250 296.698 M 213.833 297.228 C 214.231 297.629, 214.384 299.767, 214.173 301.978 C 213.822 305.659, 213.545 306, 210.895 306 C 209.303 306, 208 306.420, 208 306.934 C 208 307.767, 259.069 307.499, 264.500 306.637 C 266.044 306.392, 266.614 305.336, 267 302.005 C 267.352 298.964, 268.056 297.496, 269.383 297.035 C 270.419 296.675, 258.181 296.407, 242.187 296.440 C 226.194 296.473, 213.434 296.828, 213.833 297.228 M 690.923 336.095 C 690.881 336.318, 690.702 337.247, 690.525 338.160 C 690.140 340.146, 693.631 341.324, 695.925 339.982 C 697.169 339.254, 697.202 339.054, 696.079 339.030 C 695.297 339.014, 693.835 338.255, 692.829 337.345 C 691.823 336.435, 690.966 335.872, 690.923 336.095 M 348.573 342.154 C 346.763 345.783, 346.654 346.332, 347.895 345.565 C 348.388 345.260, 349.048 345.684, 349.364 346.506 C 350.018 348.211, 352 348.538, 352 346.941 C 352 346.359, 351.550 346.160, 351 346.500 C 349.320 347.538, 349.888 346.331, 351.750 344.905 C 352.712 344.169, 353.169 343.957, 352.766 344.434 C 351.928 345.424, 355.078 348.070, 356.239 347.352 C 357.568 346.531, 357.058 342.236, 355.564 341.663 C 354.774 341.360, 352.974 342.019, 351.564 343.128 C 348.408 345.610, 348.137 344.554, 351.250 341.908 C 353.149 340.294, 353.202 340.101, 351.586 340.668 C 350.263 341.132, 349.895 340.979, 350.395 340.170 C 350.793 339.526, 350.899 339, 350.632 339 C 350.365 339, 349.439 340.419, 348.573 342.154 M 795 343.191 C 795 343.571, 795.457 344.165, 796.016 344.510 C 796.575 344.856, 796.775 345.554, 796.461 346.063 C 796.124 346.608, 799.879 346.956, 805.584 346.911 C 812.077 346.859, 815.522 347.226, 816.014 348.023 C 816.542 348.878, 816.943 348.901, 817.434 348.107 C 817.810 347.498, 819.864 347, 821.997 347 C 825.259 347, 825.852 346.682, 825.725 345 C 825.607 343.438, 824.909 343.030, 822.537 343.136 C 820.156 343.243, 819.989 343.366, 821.765 343.708 C 824.692 344.270, 823.642 346, 820.374 346 C 818.286 346, 817.976 345.650, 818.527 343.914 C 819.107 342.089, 818.944 341.960, 817.226 342.879 C 816.146 343.457, 815.040 343.706, 814.767 343.433 C 813.927 342.594, 809.917 342.057, 810.407 342.850 C 810.661 343.260, 810.455 344.249, 809.949 345.048 C 809.187 346.252, 809.028 346.202, 809.015 344.750 C 809.006 343.641, 808.176 342.958, 806.750 342.885 C 798.918 342.486, 795 342.588, 795 343.191 M 150.610 349.701 C 151.215 354.583, 151.967 355.184, 152.132 350.917 L 152.263 347.500 153 351 L 153.737 354.500 153.868 351.450 C 153.991 348.611, 152.557 346, 150.875 346 C 150.477 346, 150.357 347.666, 150.610 349.701 M 134 348 C 135 348.646, 135.083 348.974, 134.250 348.985 C 133.523 348.994, 133.057 350.151, 133.136 351.750 C 133.253 354.108, 133.334 354.179, 133.706 352.250 C 133.944 351.012, 134.838 350, 135.692 350 C 136.873 350, 136.980 350.320, 136.138 351.333 C 135.303 352.339, 135.385 352.667, 136.472 352.667 C 137.264 352.667, 137.680 352.292, 137.397 351.833 C 137.114 351.375, 137.359 351, 137.941 351 C 138.523 351, 139 351.648, 139 352.441 C 139 353.234, 139.338 354.091, 139.750 354.345 C 140.162 354.600, 140.500 353.052, 140.500 350.905 C 140.500 348.757, 140.162 347, 139.750 347 C 139.338 347, 139 347.675, 139 348.500 C 139 349.325, 138.536 350, 137.969 350 C 137.401 350, 136.678 349.325, 136.362 348.500 C 136.045 347.675, 135.047 347.007, 134.143 347.015 C 132.717 347.029, 132.698 347.159, 134 348 M 360.402 353.394 C 360.066 354.270, 358.559 354.727, 356.351 354.623 C 354.417 354.532, 352.649 354.758, 352.422 355.126 C 352.195 355.493, 353.619 355.718, 355.587 355.626 C 357.555 355.533, 359.379 355.805, 359.641 356.229 C 360.516 357.644, 362.222 357.022, 361.638 355.500 C 361.322 354.675, 361.499 354, 362.031 354 C 362.564 354, 363 353.550, 363 353 C 363 351.497, 361.015 351.798, 360.402 353.394 M 928.548 355.881 C 928.758 356.091, 928.499 357.068, 927.972 358.052 C 927.078 359.723, 927.821 359.847, 939.257 359.930 L 951.500 360.019 951.500 357.510 C 951.500 356.129, 951.163 355, 950.750 355 C 950.337 355, 950 355.388, 950 355.861 C 950 356.335, 948.763 356.550, 947.250 356.340 C 944.674 355.982, 944.643 356.020, 946.750 356.946 C 950.037 358.392, 949.519 359, 945 359 C 941.857 359, 941 358.625, 941 357.250 C 941 355.765, 940.028 355.500, 934.583 355.500 C 931.054 355.500, 928.338 355.672, 928.548 355.881 M 887.702 391.631 C 887.355 391.979, 887.505 393.076, 888.037 394.069 C 889.134 396.119, 892.691 396.248, 893.451 394.266 C 893.838 393.259, 893.507 393.193, 892.034 393.982 C 890.404 394.854, 890.171 394.706, 890.499 393.005 C 890.867 391.096, 889.103 390.230, 887.702 391.631 M 606.168 396.250 L 606.336 400.500 606.740 396.557 C 607.033 393.699, 607.395 393.011, 608.057 394.057 C 608.687 395.054, 608.974 395.114, 608.985 394.250 C 608.993 393.563, 609.400 393, 609.889 393 C 610.378 393, 610.757 393.563, 610.731 394.250 C 610.706 394.938, 610.815 396.625, 610.974 398 C 611.219 400.121, 611.366 399.969, 611.938 397 C 612.804 392.508, 612.500 392, 608.941 392 C 606.121 392, 606.007 392.175, 606.168 396.250 M 856.403 400.844 C 856.738 401.386, 856.447 402.031, 855.756 402.278 C 855.065 402.524, 854.871 403.122, 855.325 403.605 C 855.786 404.096, 856.580 403.716, 857.125 402.742 C 857.661 401.784, 859.090 401.036, 860.300 401.079 C 861.510 401.122, 861.938 401.385, 861.250 401.662 C 859.475 402.379, 859.699 404, 861.573 404 C 864.815 404, 862.592 400.510, 859.139 400.179 C 857.124 399.986, 856.036 400.250, 856.403 400.844 M 369.738 403.408 C 370.071 405.150, 369.687 405.947, 368.349 406.292 C 367.140 406.603, 367.492 406.808, 369.367 406.884 C 371.765 406.981, 372.148 406.673, 371.710 404.999 C 371.422 403.898, 371.589 403.246, 372.082 403.551 C 372.574 403.855, 372.709 403.406, 372.382 402.552 C 371.402 399.998, 369.221 400.704, 369.738 403.408 M 382.829 402.706 C 382.248 403.406, 381.380 403.735, 380.898 403.437 C 380.417 403.140, 380.291 403.594, 380.618 404.448 C 381.007 405.461, 380.645 406, 379.576 406 C 378.674 406, 377.679 405.328, 377.364 404.506 C 377.048 403.684, 376.340 403.290, 375.788 403.631 C 375.169 404.013, 375.305 404.617, 376.143 405.212 C 377.128 405.910, 376.883 406.038, 375.250 405.680 C 373.716 405.344, 373 405.654, 373 406.653 C 373 407.531, 373.477 407.823, 374.190 407.382 C 375.611 406.505, 391.542 406.599, 392.990 407.494 C 393.545 407.837, 394 407.679, 394 407.142 C 394 406.606, 393.438 405.938, 392.750 405.659 C 391.806 405.276, 391.867 404.866, 393 403.982 C 394.302 402.966, 394.279 402.882, 392.833 403.343 C 391.896 403.641, 390.921 403.237, 390.607 402.419 C 389.928 400.648, 384.366 400.854, 382.829 402.706 M 396.200 402.200 C 395.540 402.860, 395 404.322, 394.999 405.450 C 394.999 407.290, 395.512 407.464, 399.999 407.153 C 404.389 406.849, 404.986 406.544, 404.884 404.653 C 404.793 402.963, 404.670 402.876, 404.311 404.250 C 403.790 406.241, 402.358 406.573, 401.779 404.837 C 401.566 404.198, 400.603 403.559, 399.640 403.418 C 398.233 403.211, 398.120 403.440, 399.067 404.580 C 400.019 405.727, 399.854 406, 398.211 406 C 396.181 406, 395.859 404.616, 397.337 402.250 C 398.327 400.666, 397.759 400.641, 396.200 402.200 M 882.770 404.228 C 883.092 405.460, 882.664 405.995, 881.367 405.985 C 879.963 405.973, 879.831 405.760, 880.834 405.124 C 881.899 404.449, 881.834 404.150, 880.511 403.643 C 879.305 403.180, 878.946 403.482, 879.190 404.754 C 879.470 406.213, 880.756 406.526, 887.012 406.656 C 891.455 406.749, 893.687 406.497, 892.500 406.036 C 891.400 405.609, 889.487 405.435, 888.250 405.649 C 887.013 405.864, 886 405.580, 886 405.020 C 886 404.459, 887.125 404, 888.500 404 C 889.875 404, 890.999 403.663, 890.997 403.250 C 890.995 402.837, 889.039 402.490, 886.650 402.478 C 882.980 402.460, 882.378 402.731, 882.770 404.228 M 213 406.786 C 213 407.208, 211.088 407.453, 208.750 407.330 C 205.078 407.138, 204.908 407.210, 207.500 407.859 C 209.150 408.273, 210.383 409.163, 210.239 409.838 C 210.066 410.652, 211.135 410.986, 213.423 410.832 C 215.317 410.705, 216.843 410.353, 216.815 410.050 C 216.613 407.903, 217.226 407.136, 218.750 407.627 C 219.713 407.938, 221.162 408.398, 221.972 408.650 C 223.268 409.053, 223.268 409.219, 221.972 410.038 C 220.809 410.774, 220.972 410.973, 222.750 410.985 C 224.487 410.997, 225 410.430, 225 408.500 C 225 407.125, 224.550 406, 224 406 C 223.450 406, 223 406.477, 223 407.059 C 223 407.641, 222.615 407.880, 222.144 407.589 C 220.640 406.660, 213 405.988, 213 406.786 M 287.468 413.052 C 287.148 413.570, 287.689 413.687, 288.698 413.319 C 290.419 412.691, 290.421 412.751, 288.748 414.662 C 286.358 417.390, 287.349 418, 294.175 418 C 299.590 418, 299.933 417.866, 298.872 416.167 C 297.561 414.068, 294.930 413.653, 295.702 415.667 C 296.046 416.563, 295.378 417, 293.666 417 C 290.693 417, 289.386 415.445, 290.863 413.665 C 291.626 412.746, 291.391 412.380, 289.969 412.273 C 288.908 412.193, 287.782 412.543, 287.468 413.052 M 863.374 418.467 C 863.065 419.274, 863.043 420.511, 863.327 421.217 C 863.610 421.923, 863.878 421.488, 863.921 420.250 C 863.964 419.012, 864.450 418, 865 418 C 865.879 418, 866.368 419.285, 866.174 421.083 C 866.139 421.404, 867.676 421.667, 869.589 421.667 C 871.799 421.667, 872.718 421.318, 872.111 420.711 C 871.586 420.186, 871.394 419.136, 871.685 418.378 C 872.427 416.445, 870.522 416.658, 868.872 418.692 C 867.704 420.133, 867.708 420.258, 868.905 419.537 C 869.928 418.920, 870.085 419.054, 869.482 420.029 C 868.839 421.069, 868.333 420.881, 867.206 419.183 C 865.521 416.646, 864.170 416.393, 863.374 418.467 M 724.678 444.765 C 722.916 445.161, 722.916 445.219, 724.678 446.555 C 726.423 447.878, 726.416 447.943, 724.500 448.087 C 723.400 448.169, 722.163 448.184, 721.750 448.118 C 721.337 448.053, 721 448.498, 721 449.107 C 721 449.716, 721.712 449.941, 722.582 449.607 C 723.452 449.273, 725.503 449, 727.141 449 C 728.954 449, 729.866 448.592, 729.473 447.956 C 729.118 447.382, 729.278 446.370, 729.828 445.706 C 730.890 444.426, 728.297 443.952, 724.678 444.765 M 740 444.861 C 740 445.335, 738.763 445.576, 737.250 445.397 C 735.737 445.218, 735.288 445.314, 736.250 445.609 C 739.205 446.517, 738.197 447.859, 734.250 448.272 C 731.388 448.571, 731.829 448.704, 736.111 448.832 C 741.591 448.996, 741.711 448.941, 741.245 446.500 C 740.786 444.102, 740 443.066, 740 444.861 M 640.136 469.195 L 640 471.891 654.500 471.938 L 669 471.986 669 469.493 C 669 468.122, 668.592 467, 668.094 467 C 667.595 467, 667.427 467.918, 667.721 469.040 C 668.191 470.840, 667.835 471.052, 664.692 470.840 C 660.966 470.589, 660.564 469, 664.226 469 C 667.605 469, 665.779 468.121, 661.204 467.547 C 658.819 467.247, 657 467.434, 657 467.978 C 657 468.505, 656.438 468.800, 655.750 468.633 C 655.063 468.465, 654.837 468.517, 655.250 468.747 C 655.663 468.978, 656 469.595, 656 470.118 C 656 471.699, 647.391 470.534, 645.562 468.705 C 643.321 466.464, 642.649 466.551, 643.290 469 C 643.620 470.263, 643.320 471, 642.476 471 C 641.741 471, 640.944 469.988, 640.706 468.750 C 640.327 466.782, 640.255 466.838, 640.136 469.195 M 790.342 480.675 C 790.665 480.999, 790.505 482.056, 789.987 483.025 C 789.184 484.525, 789.560 484.847, 792.522 485.192 C 794.435 485.416, 796 485.239, 796 484.799 C 796 484.360, 794.848 484, 793.441 484 C 791.990 484, 791.149 483.567, 791.500 483 C 791.840 482.450, 793.066 482, 794.226 482 C 797.028 482, 796.154 481.248, 792.605 480.605 C 791.037 480.321, 790.019 480.352, 790.342 480.675 M 779.391 482.576 C 779.881 483.854, 779.343 484.097, 776.552 483.856 C 774.657 483.693, 772.778 483.889, 772.376 484.291 C 771.974 484.693, 775.350 484.968, 779.880 484.902 C 787.835 484.786, 790.174 484.240, 784.669 483.785 C 781.416 483.515, 781.171 482.299, 784.250 481.706 C 785.599 481.446, 784.956 481.218, 782.643 481.136 C 779.512 481.026, 778.900 481.297, 779.391 482.576" stroke="none" fill="black" fill-rule="evenodd"/>
</svg>